<?xml version="1.0" encoding="utf-8"?>
<!-- Generator: Adobe Illustrator 27.5.0, SVG Export Plug-In . SVG Version: 6.00 Build 0)  -->
<svg version="1.1" xmlns="http://www.w3.org/2000/svg" xmlns:xlink="http://www.w3.org/1999/xlink" x="0px" y="0px"
	 viewBox="0 0 500 500" style="enable-background:new 0 0 500 500;" xml:space="preserve">
<g id="Floor">
	<ellipse id="Floor_5_" style="fill:#F5F5F5;" cx="243" cy="364.462" rx="221.365" ry="116.74"/>
</g>
<g id="Shadow">
	<ellipse id="Shadow_4_" style="fill:#E6E6E6;" cx="112.587" cy="388.265" rx="58.042" ry="33.511"/>
</g>
<g id="Plants">
	<g id="Plants_1_">
		<g id="XMLID_432_">
			<path id="XMLID_536_" style="fill:#27DEBF;" d="M81.463,360.376c0,0,1.441-20.857-1.56-37.144
				c-3.001-16.287-15.452-32.702-25.716-37.873c-10.264-5.171-24.234,2.666-15.623,14.003c8.612,11.336,32.528,27.141,31.569,55.995
				L81.463,360.376z"/>
			<path id="XMLID_5439_" style="opacity:0.2;" d="M81.463,360.376c0,0,1.441-20.857-1.56-37.144
				c-3.001-16.287-15.452-32.702-25.716-37.873c-10.264-5.171-24.234,2.666-15.623,14.003c8.612,11.336,32.528,27.141,31.569,55.995
				L81.463,360.376z"/>
			<g>
				<path style="fill:#FFFFFF;" d="M78.372,345.072c-0.285,0-0.521-0.224-0.534-0.511c-1.449-32.357-23.73-49.233-28.182-52.287
					c-0.243-0.167-0.305-0.5-0.138-0.744c0.168-0.241,0.501-0.305,0.744-0.138c4.525,3.105,27.174,20.257,28.644,53.121
					c0.014,0.296-0.215,0.546-0.51,0.558C78.387,345.072,78.379,345.072,78.372,345.072z"/>
			</g>
		</g>
		<g id="XMLID_423_">
			<path id="XMLID_431_" style="fill:#27DEBF;" d="M65.772,385.813c-4.431,1.248-9.012,1.201-12.93-1.23
				c-3.6-2.234-6.264-5.511-5.92-10.944c0.146-2.306,0.52-4.593-0.041-6.874c-0.521-2.118-2.328-3.773-4.204-4.742
				c-2.368-1.224-5.051-1.707-7.489-2.786c-2.438-1.079-4.777-3.04-5.111-5.685c-0.233-1.839,0.295-3.536,1.357-5.055
				c1.063-1.519,1.679-2.467,2.776-3.96c1.929-2.626,1.213-4.221-1.434-6.253c-5.154-3.955-11.725-12.533-6.846-16.842
				c5.113-4.516,13.477-0.7,18.169,2.562c3.026,2.103,6.138,2.932,9.85,3.199c3.833,0.275,7.913,0.08,11.421,1.908
				c3.013,1.571,5.212,4.613,5.76,7.966c0.524,3.208-0.351,6.713,1.126,9.609c1.184,2.322,3.602,3.685,5.706,5.223
				c3.517,2.57,6.53,6.141,7.4,10.409c1.13,5.544-1.592,11.317-5.66,15.249C76.224,380.928,71.107,384.31,65.772,385.813z"/>
		</g>
		<path id="XMLID_367_" style="fill:#FFFFFF;" d="M71.024,374.701c-1.071-6.797-3.368-12.966-6.317-18.483
			c-0.021-0.116-0.076-0.22-0.16-0.307c-1.208-2.232-2.525-4.349-3.909-6.361c0.067-1.007,0.604-8.045,2.749-13.438
			c0.123-0.31-0.028-0.662-0.338-0.786c-0.305-0.125-0.662,0.026-0.785,0.338c-1.756,4.414-2.457,9.735-2.712,12.347
			c-11.157-15.372-26.007-23.787-26.228-23.909c-0.289-0.159-0.66-0.055-0.822,0.236c-0.162,0.292-0.057,0.66,0.236,0.822
			c0.244,0.136,18.794,10.646,29.792,29.626c-11.564-5.847-22.362-3.687-22.84-3.586c-0.326,0.069-0.535,0.39-0.466,0.717
			c0.068,0.327,0.393,0.539,0.715,0.468c0.121-0.024,11.914-2.385,23.684,4.357c2.898,5.418,5.155,11.475,6.206,18.146
			c0.041,0.26,0.243,0.456,0.488,0.501c0.065,0.012,0.134,0.014,0.204,0.003C70.851,375.34,71.076,375.031,71.024,374.701z"/>
	</g>
</g>
<g id="Character">
	<g id="Character_2_">
		<g id="XMLID_350_">
			<path style="fill:#B57A79;" d="M76.667,363.579c0,0-1.382-38.104,0.783-52.609c1.857-12.446,4.274-18.084,4.662-20.914
				c0,0,2.262-29.308,2.797-54.196c0.258-11.979,1.464-20.494,8.188-34.662l41.161,9.84c0.786,6.336,4.157,49.185,4.419,86.608
				c0.23,32.759-1.028,61.427-1.028,61.427l-0.062,1.724c-0.022,1.914,0.383,3.256,1.58,6.342c1.212,3.125,3.437,7.604,6.417,10.892
				c0.858,0.948,6.819,6.283,7.602,7.414c2.552,3.046-2.825,4.686-6.798,4.109c-4.192-0.608-10.696-2.276-12.515-4.854
				c-1.213-1.717-2.071-7.694-3.318-9.435c-4.205-5.871-5.931-8.394-5.941-10.255c-0.019-3.362,1.152-4.679,1.586-6.573
				c-0.299-3.97-8.494-36.703-8.512-48.258c-0.009-5.506,0.449-13.084,0.449-13.084l-6.215-38.206
				c-2.675,9.491-7.531,27.199-9.152,36.255c-1.98,11.063-8.647,43.274-12.776,57.903c-1.55,5.495-2.305,7.947-2.784,11.553
				c-0.002,0.014-0.138,1.286-0.139,1.299c-0.108,1.641-1.022,19.154-1.713,22.842c-1.444,7.704-8.295,6.655-9.323,0.399
				c-0.875-5.324,0.482-21.76,0.53-23.777L76.667,363.579z"/>
			<path style="fill:#27DEBF;" d="M133.18,197.871l-0.071,3.067c4.857,14.906,6.904,46.446,6.651,68.842
				c-0.343,30.347-1.33,62.777-1.33,62.777s-2.855,1.993-9.092,2.203c-6.237,0.209-8.371-1.894-8.371-1.894
				s-3.668-12.475-4.165-21.231c-0.498-8.757,0.161-14.233,0.161-14.233l-5.153-36.668c0,0-7.052,34.634-7.903,38.984
				c-0.851,4.349-8.814,35.587-8.814,35.587s-5.044,3.467-10.999,2.604c-5.956-0.863-8.385-3.755-8.385-3.755
				s-0.15-15.958,1.1-24.767c1.25-8.809,4.221-15.544,4.692-21.307c0.471-5.763-1.092-31.202-0.951-43.715
				c0.096-8.54-0.388-14.614,0.789-20.836c2.38-12.581,7.298-18.951,9.35-23.862l0.243-2.59
				C97.842,202.5,120.998,205.703,133.18,197.871z"/>
			<path id="XMLID_381_" style="fill:#37474F;" d="M76.667,363.579c-1.937,0.011-0.748,7.519-1.302,12.334
				c-0.594,5.161-2.33,8.916-2.863,13.148c-0.608,4.835-0.2,6.867,1.491,10.867c1.315,3.11,8.051,7.429,10.675,3.031
				c2.656-4.45,3.241-9.446,2.999-14.27c-0.25-4.986-0.509-8.632-0.567-12.423c-0.051-3.341,2.609-11.157,0.107-11.665l-0.139,1.3
				c-0.921,1.79-9.529,2.936-10.506-0.536L76.667,363.579z"/>
			<g id="XMLID_368_">
				<path id="XMLID_379_" style="fill:#263238;" d="M124.157,369.074c-0.619,2.409-0.081,9.036-0.081,9.036s1.02,2.296,4.729,3.858
					l1.776-9.19L124.157,369.074z"/>
				<polygon id="XMLID_374_" points="128.804,381.967 137.048,379.363 139.109,372.096 129.829,376.663 				"/>
				<path id="XMLID_372_" style="fill:#37474F;" d="M137.585,360.797l0.062-1.724c1.109,0.554,3.463,9.567,6.713,15.767
					c2.968,5.661,8.939,8.865,10.861,11.335c2.572,3.305-2.546,7.47-10.666,5.637c-4.03-0.91-10.118-3.563-11.745-6.308
					c-1.628-2.745-2.132-7.758-3.466-9.777c-1.334-2.019-4.53-4.364-5.188-6.654c-0.361-1.258-0.631-4.043,0.089-6.298
					c0.661-2.069,1.246-4.573,1.952-4.339l0.03,1.579c0.532,1.117,2.484,2.432,6.592,2.701
					C134.772,362.845,136.67,362.567,137.585,360.797z"/>
			</g>
			<g>
				<path style="opacity:0.15;" d="M95.782,199.619c-6.02,12.751-10.642,24.223-11.067,44.599c-0.092,4.396-0.136,8.719-0.179,12.9
					c-0.151,14.631-0.281,27.265-2.353,33.416c-0.443,1.315-0.931,2.642-1.444,4.039c-0.645,1.755-1.329,3.618-2.013,5.691
					c-0.733,2.786-1.447,5.806-1.917,9.121c-0.2,1.412-0.364,3.009-0.499,4.693c1.549-8.692,3.617-14.327,5.39-19.152
					c0.516-1.405,1.007-2.742,1.453-4.065c2.124-6.305,2.255-19.015,2.407-33.733c0.043-4.178,0.087-8.498,0.179-12.889
					c0.422-20.221,5.024-31.597,11.011-44.272C96.419,199.854,96.097,199.738,95.782,199.619z"/>
				<path style="opacity:0.15;" d="M111.81,260.732l4.889-22.879c0,0,8.103-2.018,11.924-6.908c0,0-0.653,6.002-8.996,9.404
					l-5.045,21.584l0.811,24.286L111.81,260.732z"/>
			</g>
			<g>
				<path style="fill:#27DEBF;" d="M75.766,325.167c-1.016,0.549-0.892,1.967-0.927,5.049c-0.035,3.082,0.102,5.325,0.363,6.028
					c0.261,0.703,2.055,3.105,9.191,3.886c7.136,0.781,9.965-1.568,10.538-2.683c0.573-1.114,2.173-6.807,2.461-8.029
					c0.385-1.632-0.337-1.848-0.337-1.848l-0.467,1.845c0,0-3.021,2.402-10.442,2.038c-7.421-0.364-10.33-4.114-10.33-4.114
					L75.766,325.167z"/>
				<path style="opacity:0.6;fill:#FFFFFF;" d="M75.766,325.167c-1.016,0.549-0.892,1.967-0.927,5.049
					c-0.035,3.082,0.102,5.325,0.363,6.028c0.261,0.703,2.055,3.105,9.191,3.886c7.136,0.781,9.965-1.568,10.538-2.683
					c0.573-1.114,2.173-6.807,2.461-8.029c0.385-1.632-0.337-1.848-0.337-1.848l-0.467,1.845c0,0-3.021,2.402-10.442,2.038
					c-7.421-0.364-10.33-4.114-10.33-4.114L75.766,325.167z"/>
			</g>
			<g>
				<path style="fill:#27DEBF;" d="M119.625,327.835c-0.704,0.228-0.636,1.048-0.366,2.688c0.27,1.641,1.211,5.335,1.444,6.484
					c0.233,1.149,4.463,3.489,10.694,2.741c6.231-0.748,7.393-2.291,7.617-3.926c0.224-1.635,0.436-5.89,0.448-7.036
					c0.013-1.146-0.139-1.314-0.878-1.567l-0.107,1.801c0,0-1.254,2.278-8.216,2.527c-6.962,0.249-10.267-2.254-10.267-2.254
					L119.625,327.835z"/>
				<path style="opacity:0.6;fill:#FFFFFF;" d="M119.625,327.835c-0.704,0.228-0.636,1.048-0.366,2.688
					c0.27,1.641,1.211,5.335,1.444,6.484c0.233,1.149,4.463,3.489,10.694,2.741c6.231-0.748,7.393-2.291,7.617-3.926
					c0.224-1.635,0.436-5.89,0.448-7.036c0.013-1.146-0.139-1.314-0.878-1.567l-0.107,1.801c0,0-1.254,2.278-8.216,2.527
					c-6.962,0.249-10.267-2.254-10.267-2.254L119.625,327.835z"/>
			</g>
		</g>
		<g>
			<path style="fill:#263238;" d="M89.118,115.893c-1.354,3.761-1.053,7.882-0.979,11.879c0.025,1.366,0.009,2.79-0.599,4.014
				c-0.608,1.224-1.989,2.174-3.314,1.84c-1.325-0.333-2.016-2.321-0.939-3.163c-1.336-0.102-2.678,0.846-3.028,2.14
				c-0.35,1.294,0.33,2.789,1.535,3.375c-2.465,0.45-3.767,3.727-2.541,5.913c1.225,2.186,4.329,2.909,6.573,1.793
				c-0.915,2.084-1.526,4.894,1.198,7.339c2.403,2.156,6.221,2.516,8.01,1.109c1.555,2.845,3.401,2.414,6.643,2.459
				c3.242,0.045,6.446-1.767,8.079-4.567c0.027,3.575,4.27,5.54,7.357,5.304c2.044-0.156,4.012-1.147,5.356-2.696
				c2.333,2.087,6.018,2.489,8.746,0.956c2.729-1.534,4.3-4.891,3.729-7.969c2.585-0.199,4.962-2.078,5.751-4.548
				c0.79-2.47-0.055-5.379-2.045-7.041c2.245-0.962,3.662-3.214,2.563-5.687c-0.55,1.649-1.833,2.058-3.572,1.759
				c-3.361-0.579-4.063-3.755-4.284-5.693c-0.201-1.753-1.929-1.175-3.175-2.424c-1.365-1.368-3.008-2.432-4.765-3.225
				c-0.886-0.4-1.802-0.731-2.734-1.005c-0.84-0.246-1.849-0.302-2.642-0.653c-1.811-0.802-3.563-1.835-5.405-2.624
				c-1.97-0.843-3.968-1.621-5.989-2.331c-4.262-1.497-10.253-4.375-14.641-2.078C91.719,111.265,89.983,113.489,89.118,115.893z"/>
			<g>
				<path style="fill:#B57A79;" d="M218.068,114.449c-1.44-1.675-4.738,2.045-7.705,5.363c-2.729,3.052-6.004,6.948-6.897,6.834
					c-1.266-0.162-0.307-4.168-1.608-6.343c-1.374-2.297-3.098-1.789-3.141,0.339c-0.037,1.827-1.212,4.546-1.164,7.652
					c0.025,1.573,0.451,4.798-1.133,6.335c-1.291,1.252-26.259,16.4-26.259,16.4s-20.808,0.543-26.52,0.321
					c-6.512-0.253-8.998-1.051-16.535-0.71c-1.195,1.587,1.762,16.637,10.493,17.622c0,0,20.65-0.463,28.476-0.764
					c7.658-0.295,9.666-0.331,12.544-2.299c7.691-5.261,9.585-7.113,15.147-11.704c6.732-5.556,9.731-7.951,10.603-8.488
					c2.494-1.536,4.807-1.902,6.803-3.157c2.401-1.509,4.177-2.733,5.942-5.086c0.501-0.669,0.929-1.498,0.736-2.312
					c-0.098-0.415-0.35-0.779-0.453-1.193c-0.161-0.641-0.03-1.495-0.286-2.105c-0.354-0.842-1.619-1.256-1.919-2.119
					c-0.132-0.379,0.009-1.608-0.246-1.918c-0.54-0.656-0.971-0.713-1.518-1.152c-0.296-0.237-1.029-0.575-0.824-1.059
					c0.249-0.587,1.204-1.516,2.987-4.259C217.372,117.905,219.051,115.594,218.068,114.449z"/>
				<path style="fill:#A14E4D;" d="M209.361,126.934c-1.511,2.189-3.745,4.164-3.29,5.634c0.348,1.124,1.738,1.744,2.985,1.11
					c0,0-0.572,1.093,0.131,2.069c0.703,0.977,1.871,0.738,1.871,0.738c-0.23,0.542,0.337,2.068,1.883,2.211
					c-0.761,0.357-2.449,0.494-2.563-1.17c0,0-2.347-0.338-2.252-2.307c0,0,0.011,2.226-2.892,3.963c0,0,1.951-2.115,1.882-4.512
					c0,0-1.813-0.596-2.003-2.379C204.922,130.508,209.361,126.934,209.361,126.934z"/>
			</g>
			<g>
				<path id="XMLID_343_" style="fill:#455A64;" d="M104.858,150.54c0,0-11.975,1.235-11.975,1.238
					c1.999,12.749-4.295,25.494-4.295,25.494c-0.292,8.149-1.17,17.592,2.374,19.476c0.073,1.957,0.406,3.17,0.406,3.17
					c8.961,4.647,28.909,7.446,40.935,1.001l0.883-3.51c3.02-1.934,2.356-10.439,2.913-16.572
					c7.914-10.767-2.845-24.568-8.992-30.195l-7.625-0.086L104.858,150.54z"/>
				<path style="fill:#37474F;" d="M133.109,200.938l0.076-3.53c-12.182,7.832-35.313,4.764-42.224-0.661l-0.273,2.917
					c0,0,3.131,5.576,20.594,6.241C128.745,206.571,133.109,200.938,133.109,200.938z"/>
			</g>
			<g id="XMLID_265_">
				<path style="fill:#263238;" d="M139.274,116.339c0.162-1.103-0.152-2.158-0.785-3.059c-0.817-1.165-1.178-1.264-0.737-2.718
					c1.072-3.532-0.084-8.503-3.851-10.057c-1.631-0.673-3.533-0.533-5.113,0.242c-0.148-0.187-0.31-0.362-0.503-0.508
					c-1.103-0.837-2.959-0.609-3.594,0.621c0.511-1.481-0.132-3.232-1.388-4.169c-1.256-0.937-3.008-1.084-4.475-0.534
					c-1.467,0.55-2.647,1.736-3.363,3.13c0.375-0.968-0.186-2.132-1.094-2.636c-0.908-0.504-2.05-0.435-3.011-0.041
					c-0.961,0.394-1.772,1.076-2.534,1.782c1.018-1.541,0.354-3.918-1.315-4.709c0.445,1.627-0.762,3.284-2.196,4.173
					c-1.433,0.889-3.121,1.301-4.555,2.189c-1.148,0.711-2.073,1.748-2.708,2.936c-0.799,1.497-1.674,4.558-0.549,6.158
					c-10.238,5.741-6.536,18.686-3.298,23.708c3.504,5.435,10.578,11.427,10.611,13.566l26.008-26.756c0,0,2.209,3.457,4.737,3.623
					c2.527,0.166,2.796-1.841,2.796-1.841c-0.768,0.822-2.234,0.119-1.956-1.043C136.682,119.233,138.929,118.68,139.274,116.339z"
					/>
				<path id="XMLID_329_" style="fill:#B57A79;" d="M128.229,108.743c3.222,1.44,6.243,6.426,6.04,20.278
					c-0.172,11.741-3.805,14.67-5.634,15.52c-1.829,0.85-5.372,0.37-8.818-0.199l-0.059,6.216l3.671,0.042
					c0,0,7.447,9.283-1.965,10.184c-13.942,1.334-21.298-9.76-21.298-9.76l4.691-0.484l-0.081-15.403c0,0-2.701,1.748-5.475-0.351
					c-3.056-2.313-3.842-6.9-1.651-9.253c2.191-2.352,4.976-2.513,7.457,0.172c0,0,7.257,0.901,14.228-3.368
					C126.472,117.967,127.48,113.237,128.229,108.743z"/>
				<path id="XMLID_280_" style="fill:#263238;" d="M105.16,121.671l-0.041,7.847c2.098,0.094,3.808-1.586,3.818-3.754
					C108.948,123.598,107.256,121.765,105.16,121.671z"/>
				<g>
					<g id="XMLID_300_">
						<path id="XMLID_305_" style="fill:#263238;" d="M128.85,124.655c-0.043,0.893,0.62,1.649,1.48,1.688
							c0.86,0.038,1.592-0.655,1.634-1.548c0.043-0.893-0.62-1.649-1.48-1.687C129.624,123.069,128.893,123.762,128.85,124.655z"/>
					</g>
					<g id="XMLID_298_">
						<path id="XMLID_299_" style="fill:#263238;" d="M117.665,125.929c-0.046,0.959,0.666,1.77,1.589,1.812
							c0.923,0.042,1.708-0.702,1.754-1.661c0.046-0.96-0.665-1.77-1.588-1.812C118.496,124.226,117.71,124.97,117.665,125.929z"/>
					</g>
					<path id="XMLID_296_" style="fill:#B16668;" d="M119.454,134.719l5.618,1.816c-0.453,1.673-2.078,2.623-3.629,2.122
						C119.891,138.155,119.001,136.393,119.454,134.719z"/>
					<path style="fill:#A14E4D;" d="M122.589,138.772c0.005-1.531-1.224-2.783-2.758-2.801c-0.16-0.002-0.314,0.018-0.467,0.042
						c0.147,1.207,0.93,2.272,2.08,2.643C121.827,138.781,122.215,138.815,122.589,138.772z"/>
					<path id="XMLID_295_" style="fill:#263238;" d="M132.692,121.449l-3.834-1.994c0.482-1.124,1.834-1.493,2.893-0.942
						C132.809,119.063,133.174,120.325,132.692,121.449z"/>
					<polygon id="XMLID_279_" style="fill:#A14E4D;" points="124.652,124.266 125.854,133.842 130.88,131.807 					"/>
				</g>
				<path id="XMLID_273_" style="fill:#A14E4D;" d="M119.817,144.342c-3.63-0.466-11.107-2.638-12.294-5.699
					c0,0,0.402,1.927,2.645,3.898c2.244,1.97,9.627,4.073,9.627,4.073L119.817,144.342z"/>
			</g>
		</g>
		<g>
			<g id="XMLID_386_">
				<path style="fill:#B57A79;" d="M120.601,205.88c-0.343-0.451-1.395,0.49-3.633,0.987c-2.858,0.635-3.969,0.535-7.002,1.327
					c-1.142,0.298-2.315,0.751-4.219,0.78l11.041,2.262c1.674-0.827,2.337-1.204,3.098-1.886
					C121.397,207.996,121.043,206.46,120.601,205.88z"/>
				<polygon style="fill:#27DEBF;" points="157.646,180.836 121.813,189.063 111.469,234.706 112.145,235.612 146.289,227.113 
					158.321,181.742 				"/>
				<polygon id="XMLID_408_" style="fill:#27DEBF;" points="158.321,181.742 122.489,189.969 112.145,235.612 146.289,227.113 				
					"/>
				<polygon style="opacity:0.25;" points="122.489,189.969 112.145,235.612 111.469,234.706 121.813,189.063 				"/>
				<polygon id="XMLID_388_" style="opacity:0.35;" points="158.321,181.742 122.489,189.969 112.145,235.612 146.289,227.113 				
					"/>
				<g id="XMLID_404_" style="opacity:0.1;">
					<path id="XMLID_406_" d="M146.988,188.956c0,0,0.197-0.601,0.441-1.342c0.243-0.741-1.824-0.573-4.617,0.376l-6.432,1.174
						c-2.793,0.948-5.404,1.595-5.648,2.336l-0.441,1.342L146.988,188.956z"/>
				</g>
				<g id="XMLID_399_">
					<path id="XMLID_400_" style="fill:#37474F;" d="M149.743,182.973c0.154-0.463-0.643-0.456-1.777-0.289l-2.061,0.449
						c0,0,1.035-1.9-3.805-1.164c-5.325,0.81-5.73,3.377-5.73,3.377s-0.622,0.223-2.585,0.622c-1.778,0.361-2.007,0.676-2.202,1.141
						l-0.353,0.843l18.263-4.183C149.495,183.769,149.589,183.436,149.743,182.973z"/>
				</g>
				<path style="fill:#263238;" d="M144.71,187.637c0.028-0.086,0.054-0.167,0.085-0.261c0.376-1.142,0.963-1.118,2.673-1.67
					l0.711-1.654l-14.692,3.359l-0.564,1.598c1.668-0.552,2.876-0.409,2.68,0.234c-0.035,0.115-0.09,0.278-0.152,0.456
					c-2.212,0.711-4.049,1.263-4.251,1.877l-0.441,1.342l16.697-3.885c0,0,0.197-0.601,0.441-1.342
					C148.097,187.085,146.737,187.096,144.71,187.637z"/>
			</g>
			<path style="fill:#B57A79;" d="M124.598,211.313c-4.382,0.36-7.809-0.077-7.809-0.077l-11.041-2.262
				c-2.128,0.033-6.964-1.356-12.341-3.517c-6.908-2.777-10.149-4.652-10.149-4.652s3.513-12.082,8.521-23.636
				c4.625-6.483,6.895-19.552,1.762-25.468c-9.182-0.465-12.391,4.26-15.963,13.22c-2.463,6.177-9.553,28.075-11.483,35.621
				c-1.106,4.324-1.536,8.147,3.182,10.84c4.199,2.397,17.355,6.601,26.659,9.24c4.973,1.411,9.791,2.527,14.162,2.917
				c11.052,0.986,14.213,0.217,17.06-3.606c1.232-1.655,1.561-4.167,2.602-5.526c0.932-1.218,1.358-1.936,0.988-2.668
				C130.001,210.26,128.13,211.023,124.598,211.313z"/>
			<path style="fill:#A14E4D;" d="M83.257,200.805c0,0-5.37-2.286-9.206-0.849c0,0,2.562-2.957,9.66-0.658L83.257,200.805z"/>
		</g>
	</g>
</g>
<g id="Data_Points">
	<g id="Chart_10_">
		<path style="fill:#E0E0E0;" d="M419.198,144.188l0.019,14.915l-9.067,14.455c-3.198-4.097-2.264-14.332,2.729-22.427
			C414.894,147.871,416.683,145.782,419.198,144.188z"/>
		<path style="fill:#27DEBF;" d="M431.507,157.338c-1.795,9.067-8.049,17.487-14.205,18.992c-2.479,0.614-4.486,0.115-6.121-1.5
			l9.115-14.75L431.507,157.338z"/>
		<path style="fill:#27DEBF;" d="M431.741,155.772l-10.731,2.631l6.023-15.855C430.87,143.991,432.682,149.069,431.741,155.772z"/>
		<path style="fill:#E0E0E0;" d="M425.898,142.435l-5.437,14.309V143.43C422.487,142.356,424.166,142.049,425.898,142.435z"/>
	</g>
	<g id="Chart_9_">
		<g id="XMLID_530_">
			<path style="fill:#455A64;" d="M334.293,405.721c0-0.021,0.005-0.056,0.017-0.105l1.275-4.702l-1.759,1.015
				c-0.044,0.025-0.08,0.025-0.114,0.002c-0.031-0.024-0.046-0.064-0.046-0.122v-0.835c0-0.057,0.014-0.117,0.046-0.177
				c0.034-0.06,0.07-0.103,0.114-0.128l2.821-1.628c0.044-0.025,0.082-0.027,0.114-0.002c0.031,0.023,0.046,0.065,0.046,0.122v0.732
				c0,0.085-0.031,0.236-0.094,0.456l-1.28,4.714c-0.017,0.057-0.039,0.113-0.063,0.166c-0.024,0.054-0.063,0.094-0.109,0.122
				l-0.827,0.477c-0.039,0.023-0.073,0.024-0.099,0.003C334.305,405.81,334.293,405.773,334.293,405.721z"/>
			<path style="fill:#455A64;" d="M339.003,397.603c0.295-0.171,0.549-0.26,0.76-0.267c0.213-0.007,0.389,0.046,0.53,0.16
				c0.14,0.112,0.244,0.281,0.312,0.5c0.07,0.22,0.109,0.469,0.121,0.745c0.007,0.22,0.012,0.454,0.012,0.7
				c0,0.247-0.005,0.48-0.012,0.7c-0.012,0.29-0.051,0.586-0.121,0.884c-0.068,0.3-0.172,0.587-0.312,0.861
				c-0.14,0.276-0.317,0.532-0.53,0.769c-0.211,0.238-0.465,0.443-0.76,0.613c-0.295,0.169-0.549,0.259-0.762,0.266
				c-0.213,0.007-0.389-0.045-0.527-0.16c-0.14-0.112-0.244-0.279-0.312-0.501c-0.07-0.219-0.111-0.467-0.123-0.744
				c-0.007-0.211-0.01-0.439-0.01-0.686c0-0.247,0.002-0.485,0.01-0.715c0.012-0.289,0.053-0.585,0.123-0.885
				c0.068-0.298,0.172-0.586,0.312-0.86c0.138-0.275,0.314-0.532,0.527-0.769C338.454,397.977,338.708,397.773,339.003,397.603z
				 M339.635,400.732c0.014-0.454,0.014-0.895,0-1.322c-0.007-0.126-0.022-0.238-0.044-0.336c-0.022-0.097-0.058-0.173-0.104-0.226
				c-0.048-0.056-0.111-0.083-0.189-0.085c-0.08-0.002-0.177,0.031-0.295,0.1c-0.119,0.068-0.218,0.148-0.295,0.24
				c-0.08,0.093-0.143,0.194-0.189,0.304c-0.048,0.108-0.085,0.224-0.107,0.347c-0.024,0.125-0.039,0.253-0.041,0.386
				c-0.019,0.446-0.019,0.888,0,1.322c0.002,0.129,0.014,0.243,0.039,0.341c0.022,0.097,0.056,0.173,0.104,0.225
				c0.051,0.053,0.114,0.08,0.194,0.081c0.077,0.004,0.177-0.03,0.295-0.098c0.118-0.069,0.215-0.149,0.295-0.242
				c0.077-0.093,0.143-0.193,0.191-0.304c0.048-0.109,0.085-0.225,0.107-0.348C339.618,400.994,339.63,400.866,339.635,400.732z"/>
			<path style="fill:#455A64;" d="M343.087,396.401c0.012,0.203,0.012,0.403,0,0.598c-0.007,0.163-0.031,0.322-0.068,0.478
				c-0.039,0.155-0.094,0.306-0.172,0.451c-0.077,0.148-0.172,0.283-0.285,0.407c-0.116,0.125-0.249,0.229-0.402,0.318
				c-0.152,0.088-0.288,0.138-0.402,0.145c-0.114,0.008-0.208-0.017-0.283-0.077c-0.075-0.058-0.133-0.144-0.172-0.254
				c-0.039-0.111-0.063-0.243-0.07-0.397c-0.007-0.099-0.012-0.196-0.012-0.288c0-0.091,0.005-0.195,0.012-0.31
				c0.007-0.162,0.031-0.322,0.07-0.478c0.039-0.157,0.097-0.307,0.172-0.454c0.075-0.145,0.169-0.28,0.283-0.403
				c0.114-0.123,0.249-0.23,0.402-0.318c0.152-0.089,0.286-0.137,0.402-0.145c0.114-0.008,0.208,0.017,0.283,0.076
				c0.075,0.059,0.133,0.144,0.172,0.255C343.056,396.116,343.08,396.249,343.087,396.401z M344.563,394.62
				c0.027-0.063,0.056-0.116,0.085-0.16c0.029-0.043,0.073-0.08,0.128-0.111l0.484-0.28c0.044-0.025,0.077-0.031,0.104-0.018
				c0.024,0.015,0.039,0.046,0.039,0.093c0,0.01-0.002,0.024-0.007,0.042c-0.005,0.018-0.01,0.036-0.017,0.057l-2.918,6.799
				c-0.027,0.063-0.056,0.117-0.085,0.16c-0.029,0.044-0.073,0.081-0.126,0.112l-0.484,0.279c-0.046,0.025-0.08,0.031-0.104,0.017
				c-0.027-0.015-0.039-0.045-0.039-0.092c0-0.011,0.002-0.025,0.005-0.043c0.005-0.018,0.01-0.036,0.019-0.057L344.563,394.62z
				 M341.918,397.635c0.007,0.132,0.027,0.223,0.061,0.272c0.034,0.048,0.094,0.047,0.181-0.002
				c0.087-0.051,0.145-0.119,0.179-0.206c0.034-0.088,0.056-0.202,0.063-0.344c0.012-0.18,0.012-0.353,0-0.52
				c-0.007-0.131-0.029-0.221-0.063-0.27c-0.034-0.05-0.092-0.05-0.179,0.001c-0.087,0.05-0.148,0.118-0.181,0.207
				c-0.034,0.087-0.053,0.201-0.061,0.341C341.906,397.296,341.906,397.469,341.918,397.635z M345.826,397.574
				c0.012,0.203,0.012,0.402,0,0.599c-0.007,0.162-0.031,0.321-0.068,0.475c-0.036,0.155-0.094,0.307-0.172,0.454
				c-0.075,0.146-0.172,0.281-0.285,0.405c-0.114,0.123-0.249,0.23-0.402,0.318c-0.155,0.09-0.288,0.138-0.402,0.145
				c-0.114,0.007-0.208-0.017-0.283-0.076c-0.075-0.059-0.133-0.145-0.172-0.255c-0.039-0.111-0.063-0.243-0.07-0.395
				c-0.01-0.101-0.012-0.197-0.012-0.289c0-0.092,0.002-0.195,0.012-0.31c0.007-0.162,0.031-0.321,0.07-0.478
				c0.039-0.157,0.097-0.307,0.172-0.454c0.075-0.144,0.169-0.279,0.283-0.403c0.114-0.123,0.247-0.23,0.402-0.319
				c0.152-0.088,0.288-0.137,0.402-0.144c0.114-0.008,0.208,0.017,0.283,0.076s0.131,0.144,0.172,0.255
				C345.794,397.29,345.819,397.422,345.826,397.574z M344.657,398.808c0.007,0.132,0.029,0.223,0.063,0.271
				c0.031,0.048,0.092,0.048,0.179-0.002c0.087-0.05,0.147-0.118,0.181-0.206c0.031-0.086,0.053-0.201,0.061-0.342
				c0.012-0.18,0.012-0.353,0-0.519c-0.007-0.132-0.029-0.223-0.061-0.272c-0.034-0.048-0.094-0.048-0.181,0.001
				c-0.087,0.051-0.148,0.12-0.179,0.207c-0.034,0.087-0.056,0.202-0.063,0.344C344.645,398.47,344.645,398.642,344.657,398.808z"/>
		</g>
		<g id="XMLID_415_">
			<path id="XMLID_528_" style="fill:#E0E0E0;" d="M335.236,390.331l-1.222-3.63c-2.511,2.502-4.69,5.613-6.309,8.928l3.191,0.833
				C332.027,394.192,333.522,392.07,335.236,390.331z"/>
			<path id="XMLID_521_" style="fill:#27DEBF;" d="M335.396,384.705l1.346,4.008c0.944-0.842,1.932-1.586,2.957-2.177
				c1.025-0.592,2.013-0.99,2.957-1.237l1.347-5.563c-1.368,0.336-2.811,0.921-4.303,1.783
				C338.206,382.38,336.764,383.461,335.396,384.705z"/>
			<path id="XMLID_520_" style="fill:#27DEBF;" d="M348.474,386.34l3.518-4.983c-1.785-1.602-4.187-2.266-6.956-1.834l-1.348,5.568
				C345.579,384.83,347.228,385.271,348.474,386.34z"/>
			<path id="XMLID_519_" style="fill:#E0E0E0;" d="M330.318,397.714l-3.2-0.835c-1.493,3.415-2.309,6.861-2.403,9.939l3.944-2.272
				C328.748,402.419,329.315,400.06,330.318,397.714z"/>
			<path id="XMLID_518_" style="fill:#E0E0E0;" d="M328.663,405.679l-3.953,2.277c0.094,3.105,0.968,5.536,2.413,7.162l3.194-4.514
				C329.343,409.461,328.753,407.79,328.663,405.679z"/>
			<path id="XMLID_516_" style="fill:#27DEBF;" d="M330.923,412.748l-3.518,4.983c1.785,1.603,4.187,2.266,6.956,1.835l1.348-5.568
				C333.819,414.258,332.171,413.817,330.923,412.748z"/>
			<path id="XMLID_512_" style="fill:#27DEBF;" d="M339.699,412.552c-1.025,0.591-2.013,0.99-2.957,1.237l-1.346,5.563
				c1.368-0.336,2.811-0.921,4.303-1.783c1.493-0.862,2.935-1.943,4.304-3.187l-1.346-4.008
				C341.712,411.217,340.724,411.96,339.699,412.552z"/>
			<path id="XMLID_504_" style="fill:#27DEBF;" d="M343.689,409.39l1.348,4.012c2.769-2.766,5.171-6.202,6.956-9.867l-3.518-0.92
				C347.228,405.124,345.579,407.469,343.689,409.39z"/>
			<g id="XMLID_455_">
				<g id="XMLID_467_">
					<path id="XMLID_498_" style="fill:#27DEBF;" d="M350.937,392.428l4.359-2.517c-0.104-3.431-1.068-6.118-2.66-7.915
						l-3.522,4.988C350.186,388.249,350.837,390.096,350.937,392.428z"/>
				</g>
			</g>
			<path id="XMLID_454_" style="fill:#27DEBF;" d="M349.114,401.232l3.522,0.921c1.592-3.636,2.556-7.436,2.66-10.987l-4.359,2.517
				C350.838,396.13,350.186,398.729,349.114,401.232z"/>
		</g>
	</g>
	<g id="Chart_8_">
		<g id="XMLID_532_">
			<g id="XMLID_545_">
				<path style="fill:#E0E0E0;" d="M199.025,284.224c-0.042,0-0.084-0.006-0.127-0.017c-0.256-0.07-0.406-0.335-0.337-0.591
					l2.882-10.536c0.133-0.485,0.435-0.826,0.829-0.934c0.387-0.105,0.8,0.025,1.145,0.357l1.496,1.439
					c0.102,0.098,0.208,0.145,0.269,0.131c0.055-0.013,0.133-0.086,0.19-0.25l5.625-16.237c0.229-0.664,0.668-0.775,0.847-0.792
					c0.236-0.021,0.68,0.039,1.06,0.696l5.118,8.863c0.093,0.162,0.176,0.225,0.21,0.242c0.002-0.012,0.037-0.048,0.077-0.133
					l5.423-11.479c0.199-0.421,0.53-0.67,0.909-0.685c0.391-0.026,0.804,0.246,1.08,0.725l5.763,9.981
					c0.133,0.23,0.054,0.524-0.175,0.656c-0.229,0.133-0.523,0.056-0.656-0.175l-5.763-9.982c-0.093-0.162-0.176-0.225-0.21-0.242
					c-0.002,0.012-0.037,0.048-0.077,0.133l-5.422,11.479c-0.199,0.421-0.53,0.67-0.909,0.685c-0.38,0.046-0.804-0.245-1.081-0.725
					l-5.117-8.862c-0.048-0.082-0.09-0.137-0.124-0.172c-0.013,0.025-0.028,0.059-0.043,0.102l-5.625,16.237
					c-0.158,0.458-0.477,0.775-0.874,0.87c-0.395,0.097-0.817-0.041-1.16-0.373l-1.496-1.439c-0.11-0.106-0.184-0.12-0.224-0.123
					c-0.036,0.011-0.108,0.088-0.155,0.261l-2.882,10.537C199.43,284.083,199.236,284.224,199.025,284.224z"/>
			</g>
			<path id="XMLID_533_" style="fill:#27DEBF;" d="M231.067,279.267v-9.091l-5.763-7.359c-0.355-0.615-0.791-0.587-0.968,0.062
				l-5.763,18.45c-0.178,0.649-0.613,0.677-0.968,0.062l-5.117-8.864c-0.355-0.615-0.822-0.609-1.037,0.013l-5.625,16.237
				c-0.215,0.622-0.614,0.576-0.885-0.102l-2.218-5.55c-0.271-0.678-0.638-0.702-0.816-0.053l-2.881,10.536l0,4.158L231.067,279.267
				z"/>
			<path style="fill:#27DEBF;" d="M211.845,255.372c1.052-0.607,1.904-0.115,1.904,1.099c0,1.214-0.853,2.691-1.904,3.298
				c-1.052,0.607-1.904,0.115-1.904-1.099C209.941,257.456,210.794,255.98,211.845,255.372z"/>
		</g>
		<g>
			<g>
				<path style="fill:#E0E0E0;" d="M197.825,303.964c-0.165,0-0.327-0.086-0.416-0.241c-0.133-0.23-0.054-0.524,0.175-0.656
					l37.5-21.651c0.229-0.132,0.523-0.056,0.656,0.175c0.133,0.23,0.054,0.524-0.175,0.656l-37.501,21.651
					C197.989,303.943,197.907,303.964,197.825,303.964z"/>
			</g>
			<g>
				<path style="fill:#E0E0E0;" d="M216.38,311.973c-0.266,0-0.481-0.215-0.481-0.481v-18.722c0-0.265,0.215-0.481,0.481-0.481
					c0.265,0,0.481,0.215,0.481,0.481v18.722C216.861,311.758,216.646,311.973,216.38,311.973z"/>
			</g>
		</g>
	</g>
	<g id="Chart_7_">
		<g>
			<path style="fill:#27DEBF;" d="M272.941,134.53c-1.17,0.253-2.396,0.737-3.659,1.469c-8.145,4.698-14.751,17.839-14.751,29.348
				s6.596,17.038,14.751,12.33c6.888-3.975,12.652-13.975,14.275-23.921l-4.058,0.871c-1.169,7.109-5.303,14.269-10.217,17.1
				c-5.826,3.354-10.545-0.585-10.535-8.812c0-8.217,4.718-17.613,10.535-20.967c0.892-0.513,1.764-0.862,2.606-1.046l1.046-6.35"/>
			<path style="fill:#E0E0E0;" d="M269.281,147.904c3.492-2.015,6.322,0.352,6.322,5.285c0,4.934-2.832,10.566-6.323,12.581
				c-3.492,2.015-6.322-0.352-6.322-5.285C262.958,155.552,265.789,149.919,269.281,147.904z"/>
			<path style="fill:#E0E0E0;" d="M286.053,145.983c0.001-9.727-4.721-15.149-11.098-13.769l-1.043,6.366
				c4.554-0.984,7.926,2.888,7.925,9.835c0,1.271-0.125,2.57-0.337,3.871l4.079-0.877
				C285.878,149.586,286.053,147.765,286.053,145.983z"/>
		</g>
	</g>
	<g id="Chart_6_">
		<g>
			<polygon id="XMLID_414_" style="fill:#27DEBF;" points="266.8,207.223 262.493,209.71 262.493,241.456 266.8,238.969 			"/>
			<polygon id="XMLID_409_" style="fill:#27DEBF;" points="291.053,210.096 286.746,212.583 286.746,227.453 291.053,224.966 			"/>
			<polygon id="XMLID_397_" style="fill:#27DEBF;" points="284.99,205.365 280.683,207.852 280.683,230.954 284.99,228.467 			"/>
			<polygon id="XMLID_393_" style="fill:#27DEBF;" points="278.927,219.866 274.619,222.353 274.619,234.454 278.927,231.967 			"/>
			<polygon id="XMLID_390_" style="fill:#27DEBF;" points="272.863,219.506 268.556,221.993 268.556,237.955 272.863,235.468 			"/>
		</g>
		<g>
			<g>
				<path style="fill:#E0E0E0;" d="M259.849,246.533c-0.165,0-0.327-0.086-0.416-0.24c-0.133-0.23-0.054-0.524,0.175-0.657
					l37.5-21.651c0.229-0.132,0.523-0.054,0.656,0.176c0.133,0.23,0.054,0.524-0.175,0.657l-37.501,21.651
					C260.013,246.512,259.931,246.533,259.849,246.533z"/>
			</g>
			<g>
				<path style="fill:#E0E0E0;" d="M278.404,254.542c-0.266,0-0.481-0.215-0.481-0.481v-18.722c0-0.265,0.215-0.48,0.481-0.48
					s0.481,0.215,0.481,0.48v18.722C278.885,254.327,278.67,254.542,278.404,254.542z"/>
			</g>
		</g>
	</g>
	<g id="Lines">
		<g>
			<path style="fill:#E0E0E0;" d="M403.076,110.39c-0.022,0-0.044-0.002-0.066-0.005l-18.721-2.695
				c-0.25-0.036-0.424-0.268-0.388-0.518c0.034-0.251,0.272-0.424,0.518-0.388l18.721,2.695c0.25,0.036,0.424,0.269,0.388,0.518
				C403.496,110.226,403.299,110.39,403.076,110.39z"/>
		</g>
		<g>
			<path style="fill:#E0E0E0;" d="M432.236,214.18c-0.024,0-0.047-0.001-0.071-0.005l-23.218-3.613
				c-0.25-0.039-0.421-0.273-0.383-0.523c0.039-0.25,0.277-0.42,0.523-0.382l23.217,3.613c0.25,0.039,0.421,0.273,0.383,0.523
				C432.652,214.019,432.457,214.18,432.236,214.18z"/>
		</g>
		<g>
			<path style="fill:#E0E0E0;" d="M350.002,175.047c-0.165,0-0.325-0.09-0.407-0.247c-0.116-0.224-0.029-0.501,0.196-0.617
				l14.549-7.549c0.223-0.116,0.5-0.03,0.617,0.195c0.116,0.224,0.029,0.501-0.196,0.617l-14.549,7.549
				C350.146,175.031,350.073,175.047,350.002,175.047z"/>
		</g>
		<g>
			<path style="fill:#E0E0E0;" d="M332.313,213.82c-0.252,0-0.458-0.205-0.458-0.458v-13.381c0-0.253,0.205-0.458,0.458-0.458
				c0.253,0,0.458,0.205,0.458,0.458v13.381C332.771,213.615,332.566,213.82,332.313,213.82z"/>
		</g>
		<g>
			<path style="fill:#E0E0E0;" d="M389.142,356.853c-0.069,0-0.139-0.015-0.204-0.048l-42.262-21.131
				c-0.226-0.113-0.319-0.389-0.205-0.614c0.113-0.227,0.392-0.318,0.614-0.205l42.262,21.131c0.226,0.113,0.319,0.389,0.205,0.614
				C389.471,356.761,389.309,356.853,389.142,356.853z"/>
		</g>
		<g>
			<path style="fill:#E0E0E0;" d="M231.418,414.113c-0.13,0-0.26-0.056-0.351-0.163l-16.067-19.168
				c-0.162-0.194-0.137-0.483,0.056-0.645c0.193-0.163,0.483-0.137,0.645,0.056l16.067,19.168c0.162,0.194,0.137,0.483-0.056,0.645
				C231.627,414.078,231.523,414.113,231.418,414.113z"/>
		</g>
		<g>
			<path style="fill:#E0E0E0;" d="M251.091,418.602c-0.137,0-0.272-0.061-0.363-0.178c-0.154-0.2-0.117-0.488,0.083-0.642
				l17.293-13.332c0.199-0.154,0.488-0.118,0.642,0.083c0.154,0.2,0.117,0.488-0.083,0.642l-17.293,13.332
				C251.287,418.571,251.189,418.602,251.091,418.602z"/>
		</g>
		<g>
			<path style="fill:#E0E0E0;" d="M287.862,156.789c-0.25,0-0.455-0.127-0.458-0.285c-0.003-0.159,0.2-0.29,0.453-0.291l29.805-0.2
				c0.251,0.018,0.46,0.126,0.463,0.285c0.003,0.159-0.2,0.29-0.453,0.291l-29.805,0.2
				C287.865,156.789,287.864,156.789,287.862,156.789z"/>
		</g>
		<g>
			<path style="fill:#E0E0E0;" d="M339.019,377c-0.25,0-0.455-0.201-0.458-0.453l-0.388-32.922c-0.003-0.252,0.199-0.46,0.453-0.463
				c0.001,0,0.003,0,0.005,0c0.25,0,0.455,0.201,0.458,0.453l0.388,32.922c0.003,0.252-0.199,0.46-0.453,0.463
				C339.023,377,339.021,377,339.019,377z"/>
		</g>
		<g>
			<path style="fill:#E0E0E0;" d="M406.743,201.249c-0.045,0-0.09-0.007-0.135-0.021c-0.241-0.075-0.377-0.331-0.303-0.572
				l6.551-21.316c0.075-0.242,0.333-0.376,0.573-0.302c0.241,0.075,0.377,0.331,0.302,0.572l-6.551,21.316
				C407.12,201.123,406.939,201.249,406.743,201.249z"/>
		</g>
	</g>
	<g id="Points_3">
		<g>
			<g>
				<g>
					<path style="fill:#E0E0E0;" d="M332.87,346.525c-1.423,0-2.748-0.338-3.925-1.017c-2.802-1.618-4.346-4.933-4.346-9.333
						c0-8.572,6.039-19.033,13.462-23.319c3.811-2.201,7.452-2.521,10.256-0.904c2.802,1.618,4.346,4.933,4.346,9.333
						c0,8.573-6.04,19.033-13.464,23.319C336.99,345.881,334.836,346.525,332.87,346.525z M344.385,313.213
						c-1.564,0-3.331,0.542-5.185,1.613c0,0,0,0-0.001,0c-6.796,3.924-12.326,13.501-12.326,21.349c0,3.554,1.14,6.17,3.209,7.364
						c2.068,1.193,4.901,0.873,7.98-0.904c6.798-3.924,12.328-13.5,12.328-21.349c0-3.554-1.14-6.169-3.209-7.364
						C346.359,313.449,345.416,313.213,344.385,313.213z M338.632,313.841h0.01H338.632z"/>
				</g>
				<path style="fill:#27DEBF;" d="M338.632,319.941c4.204-2.427,7.612-0.46,7.612,4.395c0,4.854-3.408,10.757-7.612,13.185
					c-4.204,2.427-7.612,0.46-7.612-4.395S334.428,322.368,338.632,319.941z"/>
			</g>
			<g>
				<g>
					<path style="fill:#E0E0E0;" d="M273.721,408.62c-1.423,0-2.749-0.337-3.926-1.018c-2.802-1.618-4.345-4.932-4.345-9.332
						c0-8.572,6.039-19.033,13.462-23.32l0,0c3.813-2.201,7.453-2.522,10.256-0.903c2.802,1.618,4.345,4.932,4.345,9.332
						c0,8.572-6.04,19.033-13.462,23.32C277.84,407.976,275.687,408.62,273.721,408.62z M280.051,376.919
						c-6.797,3.925-12.327,13.503-12.327,21.35c0,3.554,1.139,6.169,3.209,7.363c2.069,1.196,4.904,0.875,7.98-0.902
						c6.797-3.925,12.327-13.503,12.327-21.35c0-3.554-1.139-6.169-3.209-7.363C285.965,374.822,283.128,375.143,280.051,376.919
						L280.051,376.919z"/>
				</g>
				<path style="fill:#27DEBF;" d="M279.482,382.035c4.204-2.427,7.612-0.46,7.612,4.395c0,4.854-3.408,10.757-7.612,13.185
					c-4.204,2.427-7.612,0.46-7.612-4.395C271.87,390.365,275.278,384.462,279.482,382.035z"/>
			</g>
			<g>
				<g>
					<path style="fill:#E0E0E0;" d="M206.606,400.461c-1.068,0-2.062-0.253-2.944-0.763c-2.102-1.213-3.259-3.7-3.259-6.999
						c0-6.428,4.529-14.274,10.097-17.488l0,0c2.858-1.651,5.591-1.893,7.692-0.678c2.102,1.213,3.259,3.699,3.259,6.999
						c0,6.43-4.529,14.276-10.097,17.49C209.697,399.979,208.081,400.461,206.606,400.461z M215.243,375.477
						c-1.173,0-2.498,0.407-3.89,1.21l0,0c-5.098,2.943-9.245,10.127-9.245,16.012c0,2.666,0.854,4.626,2.406,5.523
						c1.553,0.895,3.677,0.656,5.986-0.677c5.098-2.943,9.245-10.126,9.245-16.013c0-2.665-0.854-4.626-2.407-5.522
						C216.723,375.654,216.016,375.477,215.243,375.477z M210.927,375.949h0.01H210.927z"/>
				</g>
				<path style="fill:#27DEBF;" d="M210.927,380.523c3.153-1.82,5.709-0.345,5.709,3.296s-2.556,8.068-5.709,9.888
					s-5.709,0.345-5.709-3.296C205.218,386.771,207.774,382.344,210.927,380.523z"/>
			</g>
			<g>
				<g>
					<path style="fill:#E0E0E0;" d="M243.149,361.083c-1.094,0-2.112-0.259-3.016-0.781c-2.154-1.244-3.34-3.792-3.34-7.173
						c0-6.59,4.642-14.63,10.348-17.925l0,0c2.93-1.691,5.729-1.936,7.882-0.694c2.154,1.244,3.34,3.792,3.34,7.175
						c0,6.589-4.642,14.629-10.348,17.924C246.315,360.588,244.661,361.083,243.149,361.083z M248.014,336.717
						c-5.224,3.016-9.475,10.378-9.475,16.411c0,2.732,0.877,4.741,2.466,5.659c1.591,0.92,3.768,0.672,6.135-0.694
						c5.224-3.015,9.475-10.377,9.475-16.41c0-2.732-0.877-4.742-2.466-5.66C252.557,335.104,250.38,335.35,248.014,336.717
						L248.014,336.717z"/>
				</g>
				<path style="fill:#27DEBF;" d="M247.578,340.649c3.231-1.866,5.851-0.353,5.851,3.378c0,3.731-2.62,8.268-5.851,10.134
					c-3.231,1.866-5.851,0.353-5.851-3.378C241.727,347.052,244.346,342.515,247.578,340.649z"/>
			</g>
			<g>
				<g>
					<path style="fill:#E0E0E0;" d="M281.341,343.173c-0.874,0-1.686-0.207-2.408-0.624c-1.719-0.993-2.666-3.026-2.666-5.727
						c0-5.259,3.705-11.677,8.26-14.308l0,0c2.338-1.351,4.571-1.547,6.292-0.554c1.719,0.993,2.666,3.026,2.666,5.726
						c0,5.26-3.706,11.678-8.26,14.308C283.868,342.777,282.547,343.173,281.341,343.173z M285.224,323.722
						c-4.17,2.408-7.563,8.285-7.563,13.1c0,2.181,0.699,3.786,1.969,4.519c1.269,0.732,3.007,0.535,4.897-0.555
						c4.17-2.407,7.563-8.285,7.563-13.1c0-2.18-0.699-3.785-1.97-4.518C288.854,322.437,287.114,322.632,285.224,323.722
						L285.224,323.722z"/>
				</g>
				<path style="fill:#27DEBF;" d="M284.876,326.861c2.579-1.489,4.671-0.282,4.671,2.697c0,2.978-2.091,6.6-4.67,8.09
					c-2.579,1.489-4.671,0.282-4.671-2.697C280.205,331.972,282.296,328.35,284.876,326.861z"/>
			</g>
			<g>
				<g>
					<path style="fill:#E0E0E0;" d="M212.375,331.77c-0.874,0-1.686-0.207-2.408-0.624c-1.719-0.993-2.666-3.026-2.666-5.727
						c0-5.259,3.706-11.677,8.26-14.308l0,0c2.338-1.351,4.572-1.548,6.292-0.554c1.719,0.993,2.666,3.026,2.666,5.726
						c0,5.26-3.705,11.678-8.26,14.308C214.903,331.374,213.581,331.77,212.375,331.77z M216.259,312.319
						c-4.17,2.408-7.563,8.285-7.563,13.1c0,2.181,0.699,3.786,1.969,4.519c1.269,0.731,3.007,0.535,4.897-0.555
						c4.17-2.407,7.563-8.284,7.563-13.1c0-2.18-0.699-3.785-1.969-4.518C219.888,311.034,218.148,311.229,216.259,312.319
						L216.259,312.319z"/>
				</g>
				<path style="fill:#27DEBF;" d="M215.91,315.458c2.579-1.489,4.671-0.282,4.671,2.697c0,2.978-2.091,6.6-4.671,8.09
					c-2.579,1.489-4.67,0.282-4.671-2.697C211.24,320.569,213.331,316.947,215.91,315.458z"/>
			</g>
			<g>
				<g>
					<path style="fill:#E0E0E0;" d="M373.03,309.23c-0.602,0-1.161-0.142-1.659-0.43c-1.184-0.683-1.836-2.084-1.836-3.943
						c0-3.621,2.551-8.042,5.688-9.852l0,0c1.613-0.93,3.15-1.066,4.334-0.382c1.184,0.683,1.836,2.084,1.836,3.943
						c0,3.621-2.552,8.041-5.689,9.852C374.771,308.958,373.861,309.23,373.03,309.23z M375.704,295.837
						c-2.872,1.658-5.207,5.705-5.207,9.021c0,1.502,0.481,2.607,1.355,3.111c0.872,0.504,2.071,0.369,3.371-0.382
						c2.872-1.659,5.208-5.706,5.208-9.021c0-1.502-0.481-2.607-1.355-3.11C378.203,294.949,377.003,295.087,375.704,295.837
						L375.704,295.837z"/>
				</g>
				<path style="fill:#27DEBF;" d="M375.464,297.998c1.776-1.026,3.216-0.194,3.216,1.857s-1.44,4.545-3.216,5.57
					c-1.776,1.025-3.216,0.194-3.216-1.857C372.248,301.518,373.688,299.024,375.464,297.998z"/>
			</g>
			<g>
				<g>
					<path style="fill:#E0E0E0;" d="M400.135,305.626c-0.602,0-1.161-0.142-1.659-0.43c-1.184-0.683-1.836-2.084-1.836-3.943
						c0-3.622,2.552-8.042,5.689-9.852l0,0c1.611-0.93,3.148-1.065,4.333-0.382c1.184,0.683,1.836,2.084,1.836,3.943
						c0,3.621-2.552,8.042-5.688,9.852C401.875,305.354,400.965,305.626,400.135,305.626z M404.999,291.552
						c-0.66,0-1.406,0.229-2.19,0.681l0,0c-2.872,1.658-5.208,5.705-5.208,9.021c0,1.502,0.481,2.607,1.355,3.11
						c0.871,0.507,2.072,0.369,3.372-0.381c2.872-1.658,5.207-5.705,5.207-9.021c0-1.502-0.481-2.607-1.355-3.111
						C405.834,291.651,405.435,291.552,404.999,291.552z M402.569,291.817h0.01H402.569z"/>
				</g>
				<path style="fill:#27DEBF;" d="M402.569,294.394c1.776-1.025,3.216-0.194,3.216,1.857c0,2.051-1.44,4.545-3.216,5.57
					c-1.776,1.026-3.216,0.194-3.216-1.857C399.353,297.914,400.792,295.42,402.569,294.394z"/>
			</g>
			<g>
				<g>
					<path style="fill:#E0E0E0;" d="M186.707,367.721c-0.602,0-1.161-0.142-1.659-0.43c-1.184-0.683-1.836-2.084-1.836-3.943
						c0-3.621,2.553-8.041,5.689-9.852l0,0c1.611-0.929,3.15-1.065,4.333-0.382c1.184,0.683,1.836,2.084,1.836,3.943
						c0,3.621-2.551,8.042-5.688,9.852C188.447,367.449,187.538,367.721,186.707,367.721z M189.382,354.328
						c-2.872,1.659-5.208,5.706-5.208,9.021c0,1.502,0.481,2.607,1.355,3.11c0.871,0.507,2.072,0.369,3.372-0.381
						c2.872-1.658,5.207-5.705,5.207-9.021c0-1.502-0.481-2.607-1.355-3.111C191.881,353.443,190.682,353.579,189.382,354.328
						L189.382,354.328z"/>
				</g>
				<path style="fill:#27DEBF;" d="M189.141,356.49c1.776-1.025,3.216-0.194,3.216,1.857c0,2.051-1.44,4.545-3.216,5.57
					c-1.776,1.025-3.216,0.194-3.216-1.857C185.925,360.009,187.365,357.515,189.141,356.49z"/>
			</g>
			<g>
				<g>
					<path style="fill:#E0E0E0;" d="M265.38,305.757c-0.601,0-1.161-0.143-1.658-0.43c-1.184-0.683-1.836-2.084-1.836-3.943
						c0-3.621,2.551-8.042,5.688-9.852l0,0c1.613-0.93,3.15-1.065,4.334-0.382c1.184,0.683,1.836,2.084,1.836,3.943
						c0,3.621-2.551,8.041-5.688,9.851C267.121,305.485,266.211,305.757,265.38,305.757z M268.054,292.364
						c-2.872,1.658-5.207,5.705-5.207,9.021c0,1.502,0.481,2.607,1.355,3.11c0.874,0.505,2.072,0.37,3.372-0.382
						c2.872-1.658,5.207-5.704,5.207-9.02c0-1.502-0.481-2.607-1.355-3.111C270.553,291.475,269.354,291.615,268.054,292.364
						L268.054,292.364z"/>
				</g>
				<path style="fill:#27DEBF;" d="M267.814,294.525c1.776-1.025,3.216-0.194,3.216,1.857c0,2.051-1.44,4.545-3.216,5.57
					c-1.776,1.026-3.216,0.194-3.216-1.857C264.598,298.045,266.038,295.551,267.814,294.525z"/>
			</g>
			<g>
				<g>
					<path style="fill:#E0E0E0;" d="M302.596,255.17c-0.602,0-1.161-0.142-1.659-0.43c-1.184-0.683-1.836-2.084-1.836-3.943
						c0-3.622,2.553-8.041,5.689-9.852c1.61-0.929,3.15-1.064,4.333-0.382c1.184,0.684,1.836,2.084,1.836,3.943
						c0,3.621-2.551,8.042-5.688,9.852C304.336,254.898,303.426,255.17,302.596,255.17z M307.461,241.096
						c-0.661,0-1.408,0.229-2.191,0.682l0,0c-2.872,1.657-5.208,5.704-5.208,9.02c0,1.502,0.481,2.607,1.355,3.11
						c0.872,0.506,2.072,0.369,3.372-0.381c2.872-1.658,5.207-5.705,5.207-9.02c0-1.502-0.481-2.606-1.355-3.111
						C308.294,241.196,307.896,241.096,307.461,241.096z M305.03,241.361h0.01H305.03z"/>
				</g>
				<path style="fill:#27DEBF;" d="M305.029,243.939c1.776-1.026,3.216-0.194,3.216,1.857c0,2.051-1.44,4.545-3.216,5.57
					c-1.776,1.025-3.216,0.194-3.216-1.857C301.813,247.458,303.253,244.964,305.029,243.939z"/>
			</g>
			<g>
				<g>
					<path style="fill:#E0E0E0;" d="M321.722,303.047c-0.602,0-1.161-0.142-1.659-0.43c-1.184-0.683-1.836-2.084-1.836-3.943
						c0-3.621,2.551-8.042,5.688-9.852l0,0c1.613-0.929,3.151-1.065,4.334-0.382c1.184,0.683,1.836,2.084,1.836,3.943
						c0,3.62-2.551,8.04-5.688,9.852C323.463,302.774,322.552,303.047,321.722,303.047z M324.396,289.653
						c-2.872,1.658-5.207,5.705-5.207,9.021c0,1.502,0.481,2.607,1.355,3.11c0.871,0.507,2.072,0.369,3.372-0.381
						c2.871-1.659,5.207-5.706,5.207-9.021c0-1.502-0.481-2.607-1.355-3.11C326.894,288.765,325.694,288.904,324.396,289.653
						L324.396,289.653z"/>
				</g>
				<path style="fill:#27DEBF;" d="M324.156,291.815c1.776-1.026,3.216-0.194,3.216,1.857c0,2.051-1.44,4.545-3.216,5.57
					c-1.776,1.026-3.216,0.194-3.216-1.857C320.94,295.334,322.379,292.84,324.156,291.815z"/>
			</g>
			<g>
				<g>
					<path style="fill:#E0E0E0;" d="M326.483,234.02c-0.854,0-1.648-0.202-2.353-0.61c-1.681-0.97-2.607-2.958-2.607-5.597
						c0-5.141,3.622-11.414,8.075-13.984c2.284-1.32,4.469-1.512,6.149-0.542c1.681,0.97,2.607,2.958,2.607,5.597
						c0,5.141-3.622,11.414-8.074,13.985C328.955,233.633,327.662,234.02,326.483,234.02z M333.39,214.042
						c-0.938,0-1.997,0.325-3.11,0.968l0,0c-4.076,2.353-7.392,8.097-7.392,12.803c0,2.131,0.683,3.699,1.923,4.416
						c1.239,0.715,2.94,0.524,4.787-0.541c4.075-2.354,7.391-8.097,7.391-12.804c0-2.131-0.683-3.699-1.923-4.416
						C334.573,214.183,334.008,214.042,333.39,214.042z M329.939,214.419h0.01H329.939z"/>
				</g>
				<path style="fill:#27DEBF;" d="M329.939,218.077c2.521-1.456,4.565-0.276,4.565,2.636c0,2.911-2.044,6.451-4.565,7.907
					c-2.521,1.456-4.565,0.276-4.565-2.636C325.374,223.072,327.418,219.533,329.939,218.077z"/>
			</g>
		</g>
		<g>
			<g>
				<path style="fill:#E0E0E0;" d="M344.807,312.55c-0.05,0-0.1-0.008-0.15-0.025c-0.238-0.083-0.366-0.344-0.283-0.583
					l18.897-54.51c0.084-0.239,0.343-0.363,0.583-0.283c0.238,0.083,0.366,0.344,0.283,0.583l-18.897,54.51
					C345.174,312.432,344.997,312.55,344.807,312.55z"/>
			</g>
			<g>
				<path style="fill:#E0E0E0;" d="M333.134,318.893c-0.175,0-0.343-0.101-0.419-0.272l-7.759-17.48
					c-0.102-0.23,0.002-0.501,0.233-0.604c0.228-0.104,0.501,0.001,0.604,0.233l7.76,17.48c0.102,0.23-0.002,0.501-0.233,0.604
					C333.259,318.881,333.196,318.893,333.134,318.893z"/>
			</g>
			<g>
				<path style="fill:#E0E0E0;" d="M351.527,321.744c-0.126,0-0.251-0.052-0.343-0.153c-0.167-0.189-0.15-0.479,0.038-0.647
					l18.489-16.429c0.188-0.168,0.477-0.15,0.647,0.038c0.167,0.189,0.15,0.479-0.038,0.647l-18.489,16.429
					C351.744,321.706,351.635,321.744,351.527,321.744z"/>
			</g>
			<g>
				<path style="fill:#E0E0E0;" d="M397.376,299.659c-0.006,0-0.012,0-0.018,0l-16.464-0.634c-0.252-0.01-0.449-0.222-0.44-0.476
					c0.01-0.252,0.221-0.429,0.476-0.44l16.464,0.634c0.252,0.01,0.449,0.222,0.44,0.476
					C397.824,299.465,397.621,299.659,397.376,299.659z"/>
			</g>
			<g>
				<path style="fill:#E0E0E0;" d="M325.375,289.155c-0.013,0-0.025,0-0.038-0.001c-0.252-0.021-0.44-0.241-0.42-0.494l4.565-56.42
					c0.021-0.251,0.235-0.435,0.494-0.419c0.251,0.02,0.44,0.241,0.42,0.493l-4.565,56.42
					C325.811,288.974,325.611,289.155,325.375,289.155z"/>
			</g>
			<g>
				<path style="fill:#E0E0E0;" d="M272.498,292.791c-0.094,0-0.189-0.029-0.271-0.088c-0.204-0.149-0.248-0.436-0.099-0.64
					l28.141-38.432c0.15-0.205,0.438-0.247,0.64-0.099c0.204,0.149,0.248,0.436,0.099,0.64l-28.141,38.432
					C272.778,292.725,272.638,292.791,272.498,292.791z"/>
			</g>
			<g>
				<path style="fill:#E0E0E0;" d="M281.608,326.284c-0.165,0-0.326-0.09-0.407-0.248l-11.64-22.618
					c-0.116-0.224-0.028-0.501,0.197-0.616c0.223-0.115,0.5-0.028,0.616,0.197l11.64,22.618c0.116,0.224,0.028,0.501-0.197,0.616
					C281.75,326.268,281.679,326.284,281.608,326.284z"/>
			</g>
			<g>
				<path style="fill:#E0E0E0;" d="M289.017,375.753c-0.127,0-0.254-0.053-0.346-0.157c-0.165-0.19-0.145-0.48,0.045-0.646
					l38.121-33.18c0.188-0.164,0.478-0.147,0.646,0.045c0.165,0.19,0.145,0.48-0.045,0.646l-38.121,33.18
					C289.231,375.716,289.124,375.753,289.017,375.753z"/>
			</g>
			<g>
				<path style="fill:#E0E0E0;" d="M279.483,376.392c-0.024,0-0.048-0.002-0.072-0.005c-0.249-0.039-0.421-0.273-0.382-0.524
					l5.393-34.545c0.041-0.249,0.283-0.411,0.524-0.382c0.249,0.039,0.421,0.273,0.382,0.523l-5.393,34.546
					C279.899,376.231,279.705,376.392,279.483,376.392z"/>
			</g>
			<g>
				<path style="fill:#E0E0E0;" d="M274.812,380.1c-0.118,0-0.235-0.045-0.326-0.135L250.96,356.2
					c-0.177-0.18-0.176-0.47,0.003-0.648c0.182-0.177,0.47-0.175,0.648,0.003l23.526,23.764c0.177,0.18,0.176,0.47-0.003,0.648
					C275.044,380.056,274.928,380.1,274.812,380.1z"/>
			</g>
			<g>
				<path style="fill:#E0E0E0;" d="M267.589,392.394c-0.026,0-0.052-0.002-0.078-0.007l-44.32-7.62
					c-0.249-0.042-0.417-0.279-0.374-0.528c0.042-0.25,0.285-0.422,0.528-0.374l44.32,7.62c0.249,0.042,0.417,0.279,0.374,0.528
					C268,392.237,267.807,392.394,267.589,392.394z"/>
			</g>
			<g>
				<path style="fill:#E0E0E0;" d="M211.759,375.999c-0.011,0-0.022,0-0.034-0.001c-0.253-0.019-0.442-0.238-0.423-0.491
					l3.364-45.145c0.019-0.251,0.223-0.445,0.491-0.423c0.253,0.019,0.442,0.238,0.423,0.491l-3.364,45.145
					C212.198,375.815,211.997,375.999,211.759,375.999z"/>
			</g>
			<g>
				<path style="fill:#E0E0E0;" d="M205.507,381.453c-0.125,0-0.249-0.051-0.34-0.15l-14.469-15.996
					c-0.169-0.188-0.155-0.478,0.032-0.647c0.189-0.169,0.478-0.154,0.647,0.032l14.469,15.996c0.169,0.188,0.155,0.478-0.032,0.647
					C205.727,381.414,205.616,381.453,205.507,381.453z"/>
			</g>
			<g>
				<path style="fill:#E0E0E0;" d="M389.108,332.525c-0.024,0-0.048-0.004-0.072-0.013c-0.106-0.04-0.159-0.158-0.12-0.264
					l10.244-27.282c0.04-0.105,0.155-0.159,0.264-0.12c0.106,0.04,0.242,0.231,0.203,0.337l-10.244,27.282
					C389.353,332.546,389.192,332.525,389.108,332.525z"/>
			</g>
			<g>
				<path style="fill:#E0E0E0;" d="M414.328,313.901c-0.065,0-0.129-0.031-0.169-0.089l-8.543-12.375
					c-0.064-0.093-0.04-0.22,0.053-0.285c0.091-0.064,0.22-0.041,0.285,0.053l8.543,12.375c0.064,0.093,0.04,0.22-0.053,0.286
					C414.409,313.888,414.368,313.901,414.328,313.901z"/>
			</g>
			<g>
				<path style="fill:#E0E0E0;" d="M320.94,292.521c-0.074,0-0.325,0.07-0.361,0l-12.446-24.088c-0.052-0.1,0.167-0.336,0.267-0.388
					c0.1-0.049,0.224-0.012,0.277,0.088l12.446,24.088c0.052,0.1,0.012,0.224-0.088,0.276
					C321.004,292.513,320.972,292.521,320.94,292.521z"/>
			</g>
			<g>
				<path style="fill:#E0E0E0;" d="M269.841,291.438c-0.015,0-0.031-0.002-0.047-0.006c-0.11-0.026-0.358-0.161-0.332-0.271
					l8.564-36.358c0.026-0.109,0.311-0.157,0.426-0.128c0.11,0.026,0.178,0.136,0.152,0.246l-8.564,36.358
					C270.018,291.374,269.934,291.438,269.841,291.438z"/>
			</g>
			<g>
				<path style="fill:#E0E0E0;" d="M288.718,322.256c-0.027,0-0.054-0.005-0.08-0.016c-0.104-0.044-0.153-0.164-0.109-0.269
					l7.13-16.909c0.044-0.104,0.165-0.153,0.27-0.109c0.104,0.044,0.351,0.084,0.307,0.189l-7.13,16.909
					C289.072,322.129,288.798,322.256,288.718,322.256z"/>
			</g>
		</g>
		<g>
			<path style="fill:#27DEBF;" d="M389.108,328.606c1.776-1.026,3.216-0.194,3.216,1.857c0,2.051-1.44,4.545-3.216,5.57
				c-1.776,1.025-3.216,0.194-3.216-1.857C385.892,332.125,387.332,329.631,389.108,328.606z"/>
			<path style="fill:#27DEBF;" d="M308.494,263.76c2.044-1.18,3.701-0.223,3.701,2.137c0,2.36-1.657,5.23-3.701,6.41
				c-2.044,1.18-3.701,0.223-3.701-2.137S306.449,264.94,308.494,263.76z"/>
			<path style="fill:#27DEBF;" d="M295.849,301.875c1.563-0.902,2.83-0.171,2.83,1.634c0,1.805-1.267,3.999-2.83,4.902
				c-1.563,0.902-2.83,0.171-2.83-1.634S294.286,302.777,295.849,301.875z"/>
			<path style="fill:#27DEBF;" d="M278.404,251.607c1.563-0.902,2.83-0.171,2.83,1.634c0,1.805-1.267,3.999-2.83,4.902
				s-2.83,0.171-2.83-1.634C275.574,254.704,276.841,252.509,278.404,251.607z"/>
			<path style="fill:#27DEBF;" d="M414.327,311.21c1.189-0.686,2.153-0.13,2.153,1.243s-0.964,3.042-2.153,3.728
				s-2.153,0.13-2.153-1.243S413.138,311.896,414.327,311.21z"/>
		</g>
		<g style="opacity:0.25;">
			<path d="M338.632,319.941c4.204-2.427,7.612-0.46,7.612,4.395c0,4.854-3.408,10.757-7.612,13.185
				c-4.204,2.427-7.612,0.46-7.612-4.395S334.428,322.368,338.632,319.941z"/>
			<path d="M279.482,382.035c4.204-2.427,7.612-0.46,7.612,4.395c0,4.854-3.408,10.757-7.612,13.185
				c-4.204,2.427-7.612,0.46-7.612-4.395C271.87,390.365,275.278,384.462,279.482,382.035z"/>
			<path d="M210.927,380.523c3.153-1.82,5.709-0.345,5.709,3.296s-2.556,8.068-5.709,9.888s-5.709,0.345-5.709-3.296
				C205.218,386.771,207.774,382.344,210.927,380.523z"/>
			<path d="M247.578,340.649c3.231-1.866,5.851-0.353,5.851,3.378c0,3.731-2.62,8.268-5.851,10.134
				c-3.231,1.866-5.851,0.353-5.851-3.378C241.727,347.052,244.346,342.515,247.578,340.649z"/>
			<path d="M284.876,326.861c2.579-1.489,4.671-0.282,4.671,2.697c0,2.978-2.091,6.6-4.67,8.09
				c-2.579,1.489-4.671,0.282-4.671-2.697C280.205,331.972,282.296,328.35,284.876,326.861z"/>
			<path d="M215.91,315.458c2.579-1.489,4.671-0.282,4.671,2.697c0,2.978-2.091,6.6-4.671,8.09c-2.579,1.489-4.67,0.282-4.671-2.697
				C211.24,320.569,213.331,316.947,215.91,315.458z"/>
			<path d="M375.464,297.998c1.776-1.026,3.216-0.194,3.216,1.857s-1.44,4.545-3.216,5.57c-1.776,1.025-3.216,0.194-3.216-1.857
				C372.248,301.518,373.688,299.024,375.464,297.998z"/>
			<path d="M402.569,294.394c1.776-1.025,3.216-0.194,3.216,1.857c0,2.051-1.44,4.545-3.216,5.57
				c-1.776,1.026-3.216,0.194-3.216-1.857C399.353,297.914,400.792,295.42,402.569,294.394z"/>
			<path d="M189.141,356.49c1.776-1.025,3.216-0.194,3.216,1.857c0,2.051-1.44,4.545-3.216,5.57
				c-1.776,1.025-3.216,0.194-3.216-1.857C185.925,360.009,187.365,357.515,189.141,356.49z"/>
			<path d="M267.814,294.525c1.776-1.025,3.216-0.194,3.216,1.857c0,2.051-1.44,4.545-3.216,5.57
				c-1.776,1.026-3.216,0.194-3.216-1.857C264.598,298.045,266.038,295.551,267.814,294.525z"/>
			<path d="M305.029,243.939c1.776-1.026,3.216-0.194,3.216,1.857c0,2.051-1.44,4.545-3.216,5.57
				c-1.776,1.025-3.216,0.194-3.216-1.857C301.813,247.458,303.253,244.964,305.029,243.939z"/>
			<path d="M324.156,291.815c1.776-1.026,3.216-0.194,3.216,1.857c0,2.051-1.44,4.545-3.216,5.57
				c-1.776,1.026-3.216,0.194-3.216-1.857C320.94,295.334,322.379,292.84,324.156,291.815z"/>
			<path d="M329.939,218.077c2.521-1.456,4.565-0.276,4.565,2.636c0,2.911-2.044,6.451-4.565,7.907
				c-2.521,1.456-4.565,0.276-4.565-2.636C325.374,223.072,327.418,219.533,329.939,218.077z"/>
			<g>
				<path d="M389.108,328.606c1.776-1.026,3.216-0.194,3.216,1.857c0,2.051-1.44,4.545-3.216,5.57
					c-1.776,1.025-3.216,0.194-3.216-1.857C385.892,332.125,387.332,329.631,389.108,328.606z"/>
				<path d="M308.494,263.76c2.044-1.18,3.701-0.223,3.701,2.137c0,2.36-1.657,5.23-3.701,6.41c-2.044,1.18-3.701,0.223-3.701-2.137
					S306.449,264.94,308.494,263.76z"/>
				<path d="M295.849,301.875c1.563-0.902,2.83-0.171,2.83,1.634c0,1.805-1.267,3.999-2.83,4.902
					c-1.563,0.902-2.83,0.171-2.83-1.634S294.286,302.777,295.849,301.875z"/>
				<path d="M278.404,251.607c1.563-0.902,2.83-0.171,2.83,1.634c0,1.805-1.267,3.999-2.83,4.902s-2.83,0.171-2.83-1.634
					C275.574,254.704,276.841,252.509,278.404,251.607z"/>
				<path d="M414.327,311.21c1.189-0.686,2.153-0.13,2.153,1.243s-0.964,3.042-2.153,3.728s-2.153,0.13-2.153-1.243
					S413.138,311.896,414.327,311.21z"/>
			</g>
		</g>
	</g>
	<g id="Points_2">
		<g>
			<g>
				<path style="fill:#E0E0E0;" d="M366.351,162.888c-0.165,0-0.324-0.09-0.407-0.246l-20.918-40.225
					c-0.116-0.224-0.029-0.501,0.195-0.618c0.224-0.115,0.501-0.029,0.618,0.195l20.919,40.225c0.116,0.224,0.029,0.501-0.195,0.617
					C366.495,162.872,366.422,162.888,366.351,162.888z"/>
			</g>
			<g>
				<path style="fill:#E0E0E0;" d="M372.82,160.053c-0.044,0-0.088-0.014-0.125-0.043c-0.09-0.069-0.106-0.198-0.037-0.288
					l19.364-25.08c0.069-0.092,0.198-0.107,0.288-0.037c0.09,0.069,0.106,0.198,0.037,0.287l-19.364,25.08
					C372.942,160.025,372.881,160.053,372.82,160.053z"/>
			</g>
			<g>
				<path style="fill:#E0E0E0;" d="M370.069,159.574c-0.017,0-0.034-0.003-0.051-0.007c-0.11-0.029-0.176-0.141-0.147-0.25
					l5.394-20.843c0.028-0.11,0.142-0.172,0.249-0.147c0.11,0.029,0.176,0.141,0.147,0.25l-5.394,20.843
					C370.244,159.513,370.16,159.574,370.069,159.574z"/>
			</g>
			<g>
				<path style="fill:#E0E0E0;" d="M373.337,191.569c-0.219,0-0.413-0.158-0.451-0.382l-3.521-21.025
					c-0.041-0.249,0.127-0.485,0.377-0.527c0.233-0.038,0.484,0.125,0.527,0.376l3.521,21.025c0.041,0.25-0.127,0.485-0.377,0.528
					C373.388,191.567,373.363,191.569,373.337,191.569z"/>
			</g>
			<g>
				<path style="fill:#E0E0E0;" d="M378.198,189.805c-0.022,0-0.045-0.004-0.068-0.011c-0.106-0.038-0.163-0.155-0.125-0.262
					l6.466-18.455c0.036-0.107,0.149-0.163,0.262-0.126c0.106,0.038,0.163,0.155,0.125,0.261l-6.466,18.455
					C378.362,189.752,378.283,189.805,378.198,189.805z"/>
			</g>
			<g>
				<path style="fill:#E0E0E0;" d="M360.83,202.413c-0.086,0-0.166-0.055-0.194-0.14c-0.036-0.108,0.022-0.224,0.129-0.259
					l7.443-2.487c0.115-0.037,0.225,0.023,0.259,0.129c0.036,0.108-0.022,0.224-0.129,0.259l-7.443,2.487
					C360.873,202.409,360.851,202.413,360.83,202.413z"/>
			</g>
			<g>
				<path style="fill:#E0E0E0;" d="M369.909,235.487c-0.02,0-0.039-0.001-0.059-0.003c-0.25-0.032-0.428-0.262-0.396-0.512
					l3.807-29.706c0.032-0.251,0.268-0.426,0.512-0.396c0.25,0.032,0.428,0.261,0.396,0.512l-3.807,29.706
					C370.333,235.318,370.135,235.487,369.909,235.487z"/>
			</g>
			<g>
				<path style="fill:#E0E0E0;" d="M377.19,236.952c-0.114,0-0.229-0.042-0.319-0.129c-0.181-0.176-0.186-0.466-0.01-0.648
					l20.673-21.364c0.175-0.183,0.466-0.186,0.647-0.01c0.181,0.176,0.186,0.466,0.01,0.648l-20.673,21.364
					C377.429,236.906,377.309,236.952,377.19,236.952z"/>
			</g>
			<g>
				<path style="fill:#E0E0E0;" d="M363.167,241.604c-0.034,0-0.068-0.009-0.099-0.026l-6.412-3.535
					c-0.099-0.055-0.135-0.18-0.08-0.279c0.055-0.099,0.181-0.133,0.279-0.081l6.412,3.535c0.099,0.055,0.135,0.18,0.08,0.279
					C363.31,241.565,363.239,241.604,363.167,241.604z"/>
			</g>
			<g>
				<path style="fill:#E0E0E0;" d="M349.778,257.335c-0.06,0-0.12-0.027-0.161-0.078c-0.07-0.088-0.055-0.217,0.034-0.289
					l10.4-8.238c0.085-0.071,0.216-0.057,0.288,0.034c0.07,0.089,0.055,0.218-0.034,0.288l-10.4,8.239
					C349.868,257.32,349.823,257.335,349.778,257.335z"/>
			</g>
			<g>
				<path style="fill:#E0E0E0;" d="M349.778,257.335c-0.088,0-0.169-0.057-0.196-0.145l-6.261-20.483
					c-0.033-0.109,0.028-0.223,0.136-0.256c0.107-0.033,0.222,0.029,0.256,0.136l6.261,20.483c0.033,0.108-0.028,0.223-0.136,0.257
					C349.818,257.332,349.798,257.335,349.778,257.335z"/>
			</g>
			<g>
				<path style="fill:#E0E0E0;" d="M349.778,257.335c-0.01,0-0.02-0.001-0.031-0.003l-9.941-1.513
					c-0.112-0.017-0.188-0.121-0.171-0.234c0.016-0.111,0.114-0.193,0.233-0.171l9.941,1.513c0.112,0.017,0.188,0.121,0.171,0.233
					C349.965,257.262,349.878,257.335,349.778,257.335z"/>
			</g>
			<g>
				<path style="fill:#E0E0E0;" d="M412.469,249.73c-0.014,0-0.027,0-0.041-0.001l-35.299-3.102
					c-0.251-0.022-0.438-0.244-0.416-0.496c0.022-0.253,0.255-0.433,0.496-0.416l35.299,3.102c0.251,0.023,0.438,0.244,0.416,0.496
					C412.903,249.551,412.704,249.73,412.469,249.73z"/>
			</g>
		</g>
		<g>
			<g>
				<g>
					<path style="fill:#E0E0E0;" d="M365.012,258.56c-1.006,0-1.942-0.238-2.774-0.719c-1.98-1.143-3.07-3.485-3.07-6.596
						c0-6.059,4.268-13.452,9.515-16.481c0-0.001,0-0.001,0-0.001c2.696-1.554,5.269-1.78,7.249-0.638
						c1.98,1.143,3.07,3.486,3.07,6.596c0,6.058-4.268,13.452-9.515,16.481C367.924,258.104,366.401,258.56,365.012,258.56z
						 M369.485,236.155c-4.803,2.774-8.711,9.543-8.711,15.09c0,2.511,0.805,4.36,2.267,5.204c1.462,0.842,3.467,0.617,5.642-0.639
						c4.803-2.773,8.711-9.542,8.711-15.089c0-2.512-0.805-4.36-2.268-5.204C373.667,234.673,371.661,234.899,369.485,236.155
						L369.485,236.155z"/>
				</g>
				<path style="fill:#27DEBF;" d="M369.084,239.771c2.971-1.715,5.38-0.325,5.38,3.106c0,3.431-2.409,7.603-5.38,9.318
					c-2.971,1.715-5.38,0.325-5.38-3.106C363.704,245.658,366.113,241.486,369.084,239.771z"/>
			</g>
			<g>
				<g>
					<path style="fill:#E0E0E0;" d="M416.153,262.896c-1.006,0-1.942-0.238-2.774-0.719c-1.98-1.143-3.071-3.485-3.071-6.596
						c0-6.059,4.268-13.453,9.516-16.482c2.696-1.554,5.268-1.781,7.249-0.638c1.98,1.143,3.07,3.486,3.07,6.596
						c0,6.058-4.268,13.452-9.516,16.481C419.065,262.44,417.542,262.896,416.153,262.896z M424.292,239.351
						c-1.105,0-2.354,0.383-3.665,1.14l0,0c-4.803,2.773-8.712,9.542-8.712,15.089c0,2.511,0.805,4.36,2.268,5.204
						c1.461,0.842,3.465,0.617,5.641-0.639c4.803-2.773,8.712-9.542,8.712-15.089c0-2.512-0.805-4.36-2.268-5.204
						C425.687,239.517,425.02,239.351,424.292,239.351z M420.225,239.795h0.01H420.225z"/>
				</g>
				<path style="fill:#27DEBF;" d="M420.225,244.106c2.971-1.715,5.38-0.325,5.38,3.106c0,3.431-2.409,7.603-5.38,9.318
					c-2.971,1.715-5.38,0.325-5.38-3.106C414.845,249.994,417.254,245.822,420.225,244.106z"/>
			</g>
			<g>
				<g>
					<path style="fill:#E0E0E0;" d="M400.875,217.676c-0.698,0-1.348-0.166-1.925-0.499c-1.374-0.793-2.132-2.419-2.132-4.577
						c0-4.204,2.962-9.334,6.604-11.436c1.868-1.08,3.653-1.237,5.029-0.443c1.374,0.793,2.132,2.419,2.132,4.577
						c0,4.203-2.962,9.334-6.604,11.436C402.895,217.36,401.839,217.676,400.875,217.676z M406.522,201.339
						c-0.767,0-1.633,0.266-2.543,0.791l0,0c-3.333,1.924-6.045,6.621-6.045,10.47c0,1.743,0.559,3.025,1.573,3.611
						c1.018,0.586,2.406,0.428,3.915-0.443c3.333-1.925,6.044-6.622,6.044-10.47c0-1.743-0.559-3.025-1.573-3.611
						C407.49,201.455,407.028,201.339,406.522,201.339z M403.7,201.648h0.01H403.7z"/>
				</g>
				<path style="fill:#27DEBF;" d="M403.7,204.639c2.062-1.19,3.733-0.225,3.733,2.155s-1.671,5.275-3.733,6.466
					c-2.062,1.19-3.733,0.225-3.733-2.155S401.638,205.829,403.7,204.639z"/>
			</g>
			<g>
				<g>
					<path style="fill:#E0E0E0;" d="M371.639,206.368c-0.698,0-1.347-0.165-1.924-0.498c-1.374-0.793-2.132-2.419-2.132-4.577
						c0-4.204,2.962-9.334,6.602-11.436l0,0c1.869-1.078,3.656-1.235,5.029-0.443c1.374,0.793,2.132,2.419,2.132,4.576
						c0,4.204-2.962,9.334-6.604,11.436C373.659,206.052,372.603,206.368,371.639,206.368z M374.742,190.822
						c-3.333,1.924-6.044,6.622-6.044,10.47c0,1.743,0.558,3.025,1.573,3.611c1.016,0.587,2.405,0.428,3.914-0.443
						c3.333-1.924,6.045-6.621,6.045-10.47c0-1.743-0.558-3.025-1.573-3.611C377.639,189.794,376.251,189.951,374.742,190.822
						L374.742,190.822z"/>
				</g>
				<path style="fill:#27DEBF;" d="M374.464,193.331c2.062-1.19,3.733-0.225,3.733,2.155c0,2.381-1.671,5.275-3.733,6.466
					c-2.062,1.19-3.733,0.225-3.733-2.155C370.731,197.416,372.402,194.521,374.464,193.331z"/>
			</g>
			<g>
				<g>
					<path style="fill:#E0E0E0;" d="M367.015,171.552c-0.511,0-0.987-0.121-1.41-0.366c-1.007-0.58-1.561-1.771-1.561-3.351
						c0-3.079,2.169-6.836,4.834-8.375l0,0c1.369-0.79,2.677-0.907,3.684-0.324c1.007,0.581,1.561,1.771,1.561,3.351
						c0.001,3.078-2.168,6.835-4.834,8.375C368.495,171.321,367.721,171.552,367.015,171.552z M369.288,160.167
						c-2.44,1.409-4.426,4.849-4.426,7.668c0,1.276,0.409,2.215,1.152,2.644c0.74,0.429,1.759,0.314,2.866-0.324
						c2.441-1.41,4.427-4.85,4.426-7.668c0-1.276-0.409-2.215-1.152-2.644C371.414,159.414,370.394,159.528,369.288,160.167
						L369.288,160.167z"/>
				</g>
				<path style="fill:#27DEBF;" d="M369.084,162.005c1.51-0.872,2.734-0.165,2.734,1.578c0,1.743-1.224,3.863-2.734,4.735
					c-1.51,0.872-2.734,0.165-2.734-1.578C366.35,164.996,367.574,162.876,369.084,162.005z"/>
			</g>
			<path style="fill:#27DEBF;" d="M384.664,169.335c0.866-0.5,1.568-0.095,1.568,0.905c0,1-0.702,2.216-1.568,2.716
				c-0.866,0.5-1.568,0.095-1.568-0.905C383.096,171.051,383.798,169.835,384.664,169.335z"/>
			<path style="fill:#27DEBF;" d="M360.83,200.397c0.866-0.5,1.568-0.095,1.568,0.905c0,1-0.702,2.216-1.568,2.716
				c-0.866,0.5-1.568,0.095-1.568-0.905C359.262,202.113,359.964,200.897,360.83,200.397z"/>
			<path style="fill:#27DEBF;" d="M356.755,236.053c0.866-0.5,1.568-0.095,1.568,0.905c0,1-0.702,2.216-1.568,2.716
				c-0.866,0.5-1.568,0.095-1.568-0.905C355.187,237.769,355.889,236.553,356.755,236.053z"/>
			<path style="fill:#27DEBF;" d="M343.517,234.435c1.058-0.611,1.916-0.116,1.916,1.106c0,1.222-0.858,2.707-1.916,3.318
				c-1.058,0.611-1.916,0.116-1.916-1.106C341.601,236.531,342.459,235.046,343.517,234.435z"/>
			<path style="fill:#27DEBF;" d="M339.837,254.225c0.666-0.384,1.205-0.073,1.205,0.696c0,0.768-0.539,1.703-1.205,2.087
				c-0.665,0.384-1.205,0.073-1.205-0.696S339.171,254.609,339.837,254.225z"/>
			<path style="fill:#27DEBF;" d="M349.778,254.255c1.375-0.794,2.49-0.15,2.49,1.438c0,1.588-1.115,3.519-2.49,4.313
				c-1.375,0.794-2.49,0.15-2.49-1.438C347.288,256.979,348.403,255.048,349.778,254.255z"/>
			<path style="fill:#27DEBF;" d="M392.197,131.724c1.452-0.838,2.629-0.159,2.629,1.518c0,1.677-1.177,3.715-2.629,4.554
				c-1.452,0.838-2.629,0.159-2.629-1.518C389.568,134.601,390.745,132.562,392.197,131.724z"/>
			<path style="fill:#27DEBF;" d="M375.464,136.716c0.866-0.5,1.568-0.095,1.568,0.905c0,1-0.702,2.216-1.568,2.716
				c-0.866,0.5-1.568,0.095-1.568-0.905C373.896,138.432,374.598,137.216,375.464,136.716z"/>
			<g style="opacity:0.15;">
				<path d="M369.084,239.771c2.971-1.715,5.38-0.325,5.38,3.106c0,3.431-2.409,7.603-5.38,9.318
					c-2.971,1.715-5.38,0.325-5.38-3.106C363.704,245.658,366.113,241.486,369.084,239.771z"/>
				<path d="M420.225,244.106c2.971-1.715,5.38-0.325,5.38,3.106c0,3.431-2.409,7.603-5.38,9.318
					c-2.971,1.715-5.38,0.325-5.38-3.106C414.845,249.994,417.254,245.822,420.225,244.106z"/>
				<path d="M403.7,204.639c2.062-1.19,3.733-0.225,3.733,2.155s-1.671,5.275-3.733,6.466c-2.062,1.19-3.733,0.225-3.733-2.155
					S401.638,205.829,403.7,204.639z"/>
				<path d="M374.464,193.331c2.062-1.19,3.733-0.225,3.733,2.155c0,2.381-1.671,5.275-3.733,6.466
					c-2.062,1.19-3.733,0.225-3.733-2.155C370.731,197.416,372.402,194.521,374.464,193.331z"/>
				<path d="M369.084,162.005c1.51-0.872,2.734-0.165,2.734,1.578c0,1.743-1.224,3.863-2.734,4.735
					c-1.51,0.872-2.734,0.165-2.734-1.578C366.35,164.996,367.574,162.876,369.084,162.005z"/>
				<path d="M384.664,169.335c0.866-0.5,1.568-0.095,1.568,0.905c0,1-0.702,2.216-1.568,2.716c-0.866,0.5-1.568,0.095-1.568-0.905
					C383.096,171.051,383.798,169.835,384.664,169.335z"/>
				<path d="M360.83,200.397c0.866-0.5,1.568-0.095,1.568,0.905c0,1-0.702,2.216-1.568,2.716c-0.866,0.5-1.568,0.095-1.568-0.905
					C359.262,202.113,359.964,200.897,360.83,200.397z"/>
				<path d="M356.755,236.053c0.866-0.5,1.568-0.095,1.568,0.905c0,1-0.702,2.216-1.568,2.716c-0.866,0.5-1.568,0.095-1.568-0.905
					C355.187,237.769,355.889,236.553,356.755,236.053z"/>
				<path d="M343.517,234.435c1.058-0.611,1.916-0.116,1.916,1.106c0,1.222-0.858,2.707-1.916,3.318
					c-1.058,0.611-1.916,0.116-1.916-1.106C341.601,236.531,342.459,235.046,343.517,234.435z"/>
				<path d="M339.837,254.225c0.666-0.384,1.205-0.073,1.205,0.696c0,0.768-0.539,1.703-1.205,2.087
					c-0.665,0.384-1.205,0.073-1.205-0.696S339.171,254.609,339.837,254.225z"/>
				<path d="M349.778,254.255c1.375-0.794,2.49-0.15,2.49,1.438c0,1.588-1.115,3.519-2.49,4.313c-1.375,0.794-2.49,0.15-2.49-1.438
					C347.288,256.979,348.403,255.048,349.778,254.255z"/>
				<path d="M392.197,131.724c1.452-0.838,2.629-0.159,2.629,1.518c0,1.677-1.177,3.715-2.629,4.554
					c-1.452,0.838-2.629,0.159-2.629-1.518C389.568,134.601,390.745,132.562,392.197,131.724z"/>
				<path d="M375.464,136.716c0.866-0.5,1.568-0.095,1.568,0.905c0,1-0.702,2.216-1.568,2.716c-0.866,0.5-1.568,0.095-1.568-0.905
					C373.896,138.432,374.598,137.216,375.464,136.716z"/>
			</g>
		</g>
	</g>
	<g id="Points_1">
		<g>
			<g>
				<path style="fill:#E0E0E0;" d="M328.539,134.445c-0.037,0-0.074-0.01-0.108-0.031c-0.096-0.06-0.126-0.186-0.066-0.282
					l6.094-9.879c0.058-0.098,0.184-0.126,0.283-0.067c0.096,0.06,0.126,0.186,0.066,0.283l-6.094,9.879
					C328.675,134.411,328.607,134.445,328.539,134.445z"/>
			</g>
			<g>
				<path style="fill:#E0E0E0;" d="M334.633,146.423c-0.009,0-0.019-0.001-0.028-0.002c-0.112-0.016-0.19-0.12-0.175-0.232
					l2.835-20.313c0.015-0.111,0.123-0.186,0.231-0.175c0.112,0.016,0.19,0.12,0.175,0.232l-2.835,20.313
					C334.822,146.349,334.734,146.423,334.633,146.423z"/>
			</g>
			<g>
				<path style="fill:#E0E0E0;" d="M326.592,162.936c-0.03,0-0.061-0.007-0.09-0.021c-0.101-0.05-0.144-0.172-0.094-0.274
					l8.04-16.512c0.049-0.102,0.172-0.144,0.274-0.095c0.101,0.05,0.144,0.172,0.094,0.274l-8.04,16.512
					C326.742,162.893,326.669,162.936,326.592,162.936z"/>
			</g>
			<g>
				<path style="fill:#E0E0E0;" d="M317.667,156.218c-0.071,0-0.139-0.037-0.177-0.103c-0.057-0.098-0.023-0.224,0.075-0.281
					l16.966-9.795c0.098-0.056,0.222-0.023,0.28,0.075c0.057,0.098,0.023,0.224-0.075,0.281l-16.966,9.795
					C317.737,156.209,317.702,156.218,317.667,156.218z"/>
			</g>
			<g>
				<path style="fill:#E0E0E0;" d="M341.692,104.44c-0.011,0-0.023-0.001-0.035-0.002c-0.252-0.02-0.441-0.239-0.422-0.492
					l3.178-40.951c0.02-0.251,0.226-0.438,0.492-0.421c0.253,0.02,0.441,0.239,0.422,0.492l-3.178,40.951
					C342.13,104.258,341.929,104.44,341.692,104.44z"/>
			</g>
			<g>
				<path style="fill:#E0E0E0;" d="M347.627,103.044c-0.068,0-0.136-0.015-0.201-0.047c-0.227-0.111-0.321-0.385-0.21-0.612
					l30.01-61.389c0.113-0.228,0.388-0.32,0.613-0.21c0.227,0.111,0.32,0.385,0.21,0.612l-30.01,61.389
					C347.959,102.95,347.797,103.044,347.627,103.044z"/>
			</g>
			<g>
				<path style="fill:#E0E0E0;" d="M334.892,112.677c-0.072,0-0.145-0.017-0.212-0.053l-13.041-6.846
					c-0.224-0.117-0.31-0.394-0.193-0.618c0.118-0.224,0.4-0.31,0.618-0.192l13.041,6.846c0.224,0.117,0.311,0.394,0.193,0.618
					C335.216,112.588,335.056,112.677,334.892,112.677z"/>
			</g>
			<g>
				<path style="fill:#E0E0E0;" d="M237.206,83.963c-0.213,0-0.405-0.151-0.448-0.368c-0.049-0.247,0.111-0.488,0.359-0.537
					l54.933-10.917c0.254-0.049,0.488,0.112,0.537,0.359c0.049,0.248-0.111,0.488-0.359,0.537l-54.933,10.917
					C237.265,83.96,237.235,83.963,237.206,83.963z"/>
			</g>
			<g>
				<path style="fill:#E0E0E0;" d="M297.329,111.134c-0.083,0-0.162-0.052-0.192-0.134c-0.039-0.107,0.015-0.224,0.121-0.263
					l15.4-5.678c0.108-0.039,0.224,0.015,0.263,0.121c0.039,0.107-0.015,0.224-0.121,0.264l-15.4,5.678
					C297.376,111.13,297.353,111.134,297.329,111.134z"/>
			</g>
			<g>
				<path style="fill:#E0E0E0;" d="M316.283,99.481c-0.066,0-0.13-0.032-0.17-0.091l-8.103-12.02
					c-0.063-0.094-0.038-0.221,0.056-0.285c0.092-0.062,0.22-0.038,0.285,0.056l8.103,12.02c0.063,0.094,0.038,0.221-0.056,0.285
					C316.362,99.469,316.323,99.481,316.283,99.481z"/>
			</g>
			<g>
				<path style="fill:#E0E0E0;" d="M309.579,126.345c-0.023,0-0.047-0.004-0.071-0.013c-0.106-0.039-0.16-0.157-0.121-0.263
					l5.578-15.194c0.039-0.106,0.156-0.159,0.263-0.122c0.106,0.039,0.16,0.157,0.121,0.263l-5.578,15.194
					C309.741,126.294,309.662,126.345,309.579,126.345z"/>
			</g>
			<g>
				<path style="fill:#E0E0E0;" d="M293.834,108.073c-0.109,0-0.199-0.086-0.205-0.195L291.933,72.6
					c-0.005-0.113,0.082-0.209,0.195-0.215c0.004,0,0.007,0,0.01,0c0.109,0,0.199,0.086,0.205,0.195l1.696,35.279
					c0.005,0.113-0.082,0.209-0.195,0.215C293.84,108.073,293.837,108.073,293.834,108.073z"/>
			</g>
			<g>
				<path style="fill:#E0E0E0;" d="M291.304,110.741c-0.055,0-0.11-0.022-0.151-0.066l-9.008-9.767
					c-0.076-0.084-0.071-0.213,0.012-0.29c0.083-0.078,0.211-0.072,0.29,0.011l9.008,9.767c0.076,0.084,0.071,0.213-0.012,0.29
					C291.403,110.723,291.354,110.741,291.304,110.741z"/>
			</g>
			<g>
				<path style="fill:#E0E0E0;" d="M351.315,110.459c-0.229,0-0.428-0.172-0.454-0.406c-0.029-0.251,0.152-0.478,0.403-0.506
					l23.915-2.718c0.25-0.03,0.479,0.151,0.507,0.403c0.029,0.251-0.152,0.478-0.403,0.506l-23.915,2.718
					C351.35,110.458,351.333,110.459,351.315,110.459z"/>
			</g>
			<g>
				<path style="fill:#E0E0E0;" d="M382.245,99.743c-0.055,0-0.112-0.01-0.166-0.031c-0.235-0.092-0.353-0.358-0.26-0.593
					l12.067-30.915c0.092-0.235,0.362-0.351,0.593-0.26c0.235,0.092,0.353,0.358,0.26,0.593l-12.067,30.915
					C382.6,99.632,382.428,99.743,382.245,99.743z"/>
			</g>
			<g>
				<path style="fill:#E0E0E0;" d="M420.922,66.52c-0.017,0-0.034-0.002-0.051-0.007l-18.813-4.822
					c-0.109-0.028-0.175-0.14-0.147-0.25c0.027-0.11,0.143-0.176,0.249-0.148l18.813,4.822c0.109,0.028,0.175,0.14,0.147,0.25
					C421.097,66.458,421.013,66.52,420.922,66.52z"/>
			</g>
			<g>
				<path style="fill:#E0E0E0;" d="M402.28,57.188c-0.054,0-0.108-0.021-0.148-0.064c-0.078-0.082-0.075-0.212,0.007-0.29
					l13.571-12.968c0.081-0.078,0.212-0.075,0.289,0.006c0.078,0.082,0.075,0.212-0.007,0.29l-13.571,12.968
					C402.383,57.169,402.332,57.188,402.28,57.188z"/>
			</g>
		</g>
		<g>
			<path style="fill:#27DEBF;" d="M292.182,69.602c1.417-0.818,2.565-0.155,2.565,1.481c0,1.636-1.148,3.625-2.565,4.443
				c-1.417,0.818-2.565,0.155-2.565-1.481C289.617,72.409,290.765,70.42,292.182,69.602z"/>
			<path style="fill:#27DEBF;" d="M308.179,85.638c0.773-0.446,1.4-0.085,1.4,0.808s-0.627,1.979-1.4,2.425
				c-0.773,0.446-1.4,0.084-1.4-0.808C306.779,87.171,307.406,86.085,308.179,85.638z"/>
			<path style="fill:#27DEBF;" d="M282.109,99.073c0.773-0.446,1.4-0.084,1.4,0.808s-0.627,1.979-1.4,2.425
				c-0.773,0.446-1.4,0.085-1.4-0.808C280.709,100.605,281.336,99.52,282.109,99.073z"/>
			<path style="fill:#27DEBF;" d="M309.579,124.523c0.773-0.446,1.4-0.084,1.4,0.808s-0.627,1.979-1.4,2.425
				c-0.773,0.446-1.4,0.085-1.4-0.808S308.806,124.97,309.579,124.523z"/>
			<path style="fill:#27DEBF;" d="M328.539,132.623c0.773-0.446,1.4-0.084,1.4,0.808s-0.627,1.979-1.4,2.425
				c-0.773,0.446-1.4,0.085-1.4-0.808S327.766,133.07,328.539,132.623z"/>
			<path style="fill:#27DEBF;" d="M326.592,161.113c0.773-0.447,1.4-0.085,1.4,0.808c0,0.893-0.627,1.979-1.4,2.425
				c-0.773,0.447-1.4,0.085-1.4-0.808C325.192,162.646,325.819,161.56,326.592,161.113z"/>
			<path style="fill:#27DEBF;" d="M334.632,143.77c1.171-0.676,2.119-0.128,2.119,1.224c0,1.352-0.949,2.995-2.119,3.671
				c-1.171,0.676-2.12,0.128-2.12-1.224C332.513,146.09,333.462,144.446,334.632,143.77z"/>
			<path style="fill:#27DEBF;" d="M317.667,153.565c1.17-0.676,2.119-0.128,2.119,1.224c0,1.352-0.949,2.995-2.119,3.671
				c-1.171,0.676-2.12,0.128-2.12-1.224C315.548,155.885,316.496,154.241,317.667,153.565z"/>
			<path style="fill:#27DEBF;" d="M415.852,41.567c1.171-0.676,2.119-0.128,2.12,1.224c0,1.352-0.949,2.995-2.12,3.671
				c-1.171,0.676-2.12,0.128-2.12-1.224C413.732,43.887,414.681,42.243,415.852,41.567z"/>
		</g>
		<g>
			<g>
				<g>
					<path style="fill:#E0E0E0;" d="M338.176,126.761c-1.007,0-1.942-0.238-2.775-0.719c-1.98-1.144-3.07-3.486-3.07-6.596
						c0-6.059,4.268-13.452,9.515-16.481c0-0.001,0-0.001,0-0.001c2.694-1.554,5.266-1.782,7.249-0.638
						c1.98,1.144,3.07,3.486,3.07,6.596c0,6.059-4.268,13.452-9.515,16.481C341.087,126.306,339.565,126.761,338.176,126.761z
						 M342.648,104.357c-4.803,2.774-8.711,9.543-8.711,15.09c0,2.512,0.805,4.36,2.268,5.204c1.46,0.844,3.466,0.619,5.641-0.639
						c4.803-2.773,8.711-9.543,8.711-15.089c0-2.511-0.805-4.36-2.268-5.204C346.827,102.875,344.824,103.101,342.648,104.357
						L342.648,104.357z"/>
				</g>
				<path style="fill:#27DEBF;" d="M342.247,107.973c2.971-1.715,5.38-0.325,5.38,3.106c0,3.431-2.409,7.603-5.38,9.319
					c-2.971,1.715-5.38,0.325-5.38-3.106C336.867,113.86,339.276,109.688,342.247,107.973z"/>
			</g>
			<g>
				<g>
					<path style="fill:#E0E0E0;" d="M379.303,42.011c-0.812,0-1.566-0.192-2.234-0.577c-1.603-0.925-2.485-2.837-2.485-5.383
						c0-5.05,3.558-11.213,7.931-13.738l0,0c2.207-1.273,4.302-1.464,5.904-0.539c1.603,0.925,2.485,2.837,2.485,5.383
						c0,5.05-3.558,11.213-7.932,13.737C381.688,41.637,380.439,42.011,379.303,42.011z M382.974,23.106
						c-4.121,2.379-7.474,8.186-7.474,12.945c0,2.205,0.72,3.835,2.028,4.59c1.307,0.754,3.078,0.564,4.988-0.54
						c4.121-2.379,7.474-8.185,7.474-12.944c0-2.205-0.72-3.836-2.028-4.59C386.655,21.812,384.883,22.004,382.974,23.106
						L382.974,23.106z"/>
				</g>
				<path style="fill:#27DEBF;" d="M382.745,26.353c2.511-1.45,4.547-0.274,4.547,2.625c0,2.9-2.036,6.426-4.547,7.876
					c-2.511,1.45-4.547,0.274-4.547-2.625S380.233,27.803,382.745,26.353z"/>
			</g>
			<g>
				<g>
					<path style="fill:#E0E0E0;" d="M343.356,63.814c-0.573,0-1.107-0.136-1.581-0.409c-1.128-0.652-1.749-1.986-1.749-3.758
						c0-3.452,2.432-7.664,5.421-9.39h-0.001c1.535-0.885,3-1.014,4.129-0.364c1.129,0.651,1.75,1.986,1.75,3.758
						c0,3.452-2.432,7.664-5.421,9.39C345.015,63.555,344.147,63.814,343.356,63.814z M347.993,50.401
						c-0.63,0-1.341,0.218-2.088,0.65c0,0,0,0-0.001,0c-2.736,1.579-4.963,5.436-4.963,8.597c0,1.431,0.459,2.484,1.291,2.965
						c0.835,0.482,1.975,0.352,3.215-0.364c2.736-1.579,4.963-5.436,4.963-8.596c0-1.431-0.459-2.484-1.292-2.965
						C348.787,50.495,348.408,50.401,347.993,50.401z M345.676,50.654h0.01H345.676z"/>
				</g>
				<path style="fill:#27DEBF;" d="M345.676,53.11c1.693-0.977,3.065-0.185,3.065,1.77c0,1.955-1.372,4.332-3.065,5.309
					c-1.693,0.977-3.065,0.185-3.065-1.77C342.611,56.464,343.983,54.087,345.676,53.11z"/>
			</g>
			<g>
				<g>
					<path style="fill:#E0E0E0;" d="M377.915,113.14c-0.574,0-1.107-0.136-1.582-0.41c-1.128-0.651-1.749-1.986-1.749-3.757
						c0-3.452,2.432-7.664,5.42-9.39l0,0c1.537-0.886,3.003-1.015,4.13-0.364c1.129,0.652,1.75,1.986,1.75,3.758
						c0,3.451-2.432,7.664-5.42,9.39C379.574,112.881,378.706,113.14,377.915,113.14z M380.463,100.376
						c-2.737,1.58-4.964,5.436-4.964,8.597c0,1.431,0.459,2.484,1.292,2.965c0.829,0.48,1.973,0.352,3.215-0.364
						c2.736-1.58,4.963-5.437,4.963-8.597c0-1.431-0.459-2.484-1.292-2.965C382.846,99.532,381.702,99.659,380.463,100.376
						L380.463,100.376z"/>
				</g>
				<path style="fill:#27DEBF;" d="M380.234,102.435c1.693-0.977,3.065-0.185,3.065,1.77c0,1.955-1.372,4.332-3.065,5.309
					c-1.693,0.977-3.065,0.185-3.065-1.77C377.169,105.79,378.542,103.413,380.234,102.435z"/>
			</g>
			<g>
				<g>
					<path style="fill:#E0E0E0;" d="M395.056,68.934c-0.573,0-1.106-0.136-1.58-0.41c-1.129-0.651-1.75-1.986-1.75-3.758
						c0-3.451,2.432-7.664,5.421-9.39l0,0c1.536-0.887,3.003-1.014,4.13-0.364c1.129,0.652,1.75,1.986,1.75,3.758
						c0,3.452-2.432,7.664-5.422,9.39C396.715,68.675,395.848,68.934,395.056,68.934z M397.605,56.17
						c-2.737,1.58-4.964,5.437-4.964,8.596c0,1.431,0.459,2.484,1.292,2.965c0.834,0.481,1.975,0.352,3.213-0.364
						c2.738-1.58,4.965-5.436,4.965-8.597c0-1.431-0.459-2.484-1.292-2.965C399.987,55.326,398.845,55.452,397.605,56.17
						L397.605,56.17z"/>
				</g>
				<path style="fill:#27DEBF;" d="M397.376,58.229c1.693-0.977,3.065-0.185,3.065,1.77c0,1.955-1.372,4.332-3.065,5.309
					c-1.693,0.977-3.065,0.185-3.065-1.77C394.311,61.584,395.684,59.207,397.376,58.229z"/>
			</g>
			<g>
				<g>
					<path style="fill:#E0E0E0;" d="M315.347,111.415c-0.573,0-1.106-0.136-1.58-0.409c-1.129-0.652-1.75-1.986-1.75-3.758
						c0-3.452,2.432-7.664,5.421-9.39c0,0,0,0,0.001,0c1.534-0.886,3.001-1.015,4.129-0.364c1.128,0.652,1.749,1.986,1.749,3.758
						c0,3.452-2.432,7.664-5.42,9.39C317.006,111.156,316.139,111.415,315.347,111.415z M317.896,98.65
						c-2.737,1.58-4.964,5.437-4.964,8.597c0,1.431,0.459,2.484,1.292,2.965c0.833,0.483,1.975,0.351,3.213-0.364
						c2.737-1.58,4.964-5.437,4.964-8.597c0-1.431-0.459-2.484-1.291-2.965c-0.833-0.481-1.974-0.352-3.215,0.364H317.896z"/>
				</g>
				<path style="fill:#27DEBF;" d="M317.667,100.71c1.693-0.977,3.065-0.185,3.065,1.77c0,1.955-1.372,4.332-3.065,5.309
					c-1.693,0.977-3.065,0.185-3.065-1.77C314.602,104.064,315.974,101.688,317.667,100.71z"/>
			</g>
			<g>
				<g>
					<path style="fill:#E0E0E0;" d="M292.229,116.968c-0.396,0-0.765-0.094-1.093-0.283c-0.779-0.45-1.209-1.373-1.209-2.599
						c0-2.387,1.682-5.3,3.749-6.493l0,0c1.061-0.614,2.076-0.702,2.855-0.252c0.78,0.451,1.21,1.373,1.21,2.599
						c0,2.387-1.682,5.299-3.748,6.492C293.376,116.789,292.777,116.968,292.229,116.968z M295.436,107.693
						c-0.435,0-0.927,0.151-1.443,0.449l0,0c-1.892,1.092-3.432,3.76-3.432,5.945c0,0.99,0.318,1.717,0.894,2.05
						c0.576,0.333,1.365,0.242,2.222-0.252c1.892-1.093,3.432-3.759,3.432-5.944c0-0.99-0.318-1.718-0.893-2.05
						C295.986,107.758,295.724,107.693,295.436,107.693z M293.834,107.868h0.008H293.834z"/>
				</g>
				<path style="fill:#27DEBF;" d="M293.834,109.566c1.171-0.676,2.12-0.128,2.12,1.224c0,1.352-0.949,2.995-2.119,3.671
					c-1.171,0.676-2.12,0.128-2.12-1.224C291.715,111.886,292.664,110.242,293.834,109.566z"/>
			</g>
			<g>
				<g>
					<path style="fill:#E0E0E0;" d="M422.211,72.046c-0.397,0-0.765-0.094-1.093-0.283c-0.78-0.451-1.21-1.373-1.21-2.599
						c0-2.387,1.682-5.299,3.749-6.493l0,0c1.06-0.614,2.074-0.702,2.856-0.251c0.779,0.451,1.209,1.373,1.209,2.599
						c0,2.387-1.682,5.3-3.749,6.493C423.358,71.867,422.758,72.046,422.211,72.046z M423.973,63.22
						c-1.892,1.093-3.432,3.76-3.432,5.945c0,0.989,0.317,1.718,0.893,2.05c0.576,0.333,1.366,0.243,2.222-0.251
						c1.892-1.092,3.432-3.759,3.432-5.945c0-0.989-0.318-1.717-0.894-2.05C425.621,62.636,424.832,62.724,423.973,63.22
						L423.973,63.22z"/>
				</g>
				<path style="fill:#27DEBF;" d="M423.815,64.644c1.171-0.676,2.119-0.128,2.12,1.224c0,1.352-0.949,2.995-2.12,3.671
					c-1.171,0.676-2.12,0.128-2.12-1.224C421.696,66.964,422.645,65.32,423.815,64.644z"/>
			</g>
		</g>
	</g>
	<g id="Text_Box_2_">
		<g>
			<g>
				<path style="fill:#27DEBF;" d="M407.944,120.465c-0.277,0-0.538-0.067-0.77-0.201c-0.543-0.314-0.842-0.943-0.842-1.771v-14.117
					c0-1.563,1.06-3.399,2.413-4.18l20.559-11.87c0.717-0.414,1.41-0.47,1.954-0.156c0.544,0.314,0.843,0.943,0.843,1.771v14.117
					c0,1.562-1.06,3.398-2.413,4.18l-20.559,11.87C408.719,120.346,408.316,120.465,407.944,120.465z M430.486,88.741
					c-0.235,0-0.507,0.085-0.797,0.253l-20.559,11.87l0,0c-1.1,0.635-2.029,2.244-2.029,3.514v14.117
					c0,0.542,0.162,0.934,0.458,1.105c0.296,0.17,0.717,0.115,1.186-0.156l20.559-11.87c1.1-0.635,2.029-2.244,2.029-3.514V89.943
					c0-0.542-0.162-0.934-0.458-1.105C430.761,88.773,430.631,88.741,430.486,88.741z M408.937,100.53h0.01H408.937z"/>
			</g>
			<g>
				<path style="fill:#27DEBF;" d="M410.883,105.629c-0.132,0-0.261-0.069-0.334-0.192c-0.106-0.184-0.043-0.419,0.141-0.525
					l16.667-9.623c0.179-0.106,0.417-0.045,0.526,0.141c0.106,0.184,0.043,0.419-0.141,0.525l-16.667,9.623
					C411.015,105.612,410.949,105.629,410.883,105.629z"/>
			</g>
			<g>
				<path style="fill:#27DEBF;" d="M410.883,109.546c-0.132,0-0.261-0.069-0.334-0.192c-0.106-0.184-0.043-0.419,0.141-0.525
					l16.667-9.623c0.179-0.106,0.417-0.045,0.526,0.141c0.106,0.184,0.043,0.419-0.141,0.525l-16.667,9.623
					C411.015,109.529,410.949,109.546,410.883,109.546z"/>
			</g>
			<g>
				<path style="fill:#27DEBF;" d="M410.883,113.463c-0.132,0-0.261-0.069-0.334-0.192c-0.106-0.184-0.043-0.419,0.141-0.526
					l16.667-9.622c0.183-0.105,0.419-0.043,0.526,0.141c0.106,0.184,0.043,0.419-0.141,0.525l-16.667,9.622
					C411.015,113.447,410.948,113.463,410.883,113.463z"/>
			</g>
		</g>
		<g>
			<g>
				<path style="fill:#27DEBF;" d="M438.303,224.041c-0.277,0-0.537-0.067-0.769-0.201c-0.544-0.314-0.844-0.943-0.844-1.771
					v-14.117c0-1.562,1.06-3.398,2.413-4.18l0,0l20.559-11.87c0.717-0.414,1.411-0.47,1.954-0.156
					c0.544,0.314,0.844,0.943,0.844,1.771v14.117c0,1.563-1.06,3.399-2.413,4.18l-20.559,11.87
					C439.078,223.921,438.675,224.041,438.303,224.041z M439.488,204.439c-1.1,0.635-2.029,2.244-2.029,3.514v14.117
					c0,0.542,0.162,0.934,0.458,1.105c0.296,0.169,0.716,0.115,1.186-0.156l20.559-11.87c1.1-0.634,2.029-2.243,2.029-3.514v-14.117
					c0-0.541-0.163-0.934-0.459-1.104c-0.296-0.171-0.716-0.115-1.185,0.155L439.488,204.439z"/>
			</g>
			<g>
				<path style="fill:#27DEBF;" d="M441.241,209.205c-0.132,0-0.261-0.069-0.334-0.192c-0.106-0.184-0.043-0.419,0.141-0.525
					l16.667-9.623c0.179-0.105,0.417-0.045,0.526,0.141c0.106,0.184,0.043,0.419-0.141,0.525l-16.667,9.623
					C441.374,209.188,441.308,209.205,441.241,209.205z"/>
			</g>
			<g>
				<path style="fill:#27DEBF;" d="M441.241,213.122c-0.132,0-0.261-0.069-0.334-0.192c-0.106-0.184-0.043-0.419,0.141-0.525
					l16.667-9.623c0.179-0.105,0.417-0.045,0.526,0.141c0.106,0.184,0.043,0.419-0.141,0.525l-16.667,9.623
					C441.374,213.106,441.308,213.122,441.241,213.122z"/>
			</g>
			<g>
				<path style="fill:#27DEBF;" d="M441.241,217.04c-0.132,0-0.261-0.069-0.334-0.192c-0.106-0.184-0.043-0.419,0.141-0.525
					l16.667-9.623c0.179-0.105,0.417-0.045,0.526,0.141c0.106,0.184,0.043,0.419-0.141,0.525l-16.667,9.623
					C441.374,217.023,441.308,217.04,441.241,217.04z"/>
			</g>
		</g>
		<g>
			<g>
				<path style="fill:#27DEBF;" d="M395.471,367.095c-0.277,0-0.537-0.066-0.769-0.2c-0.544-0.314-0.844-0.943-0.844-1.771v-14.117
					c0-1.562,1.06-3.398,2.413-4.18l0,0l20.559-11.87c0.717-0.413,1.411-0.469,1.955-0.155c0.543,0.314,0.842,0.943,0.842,1.771
					v14.117c0,1.563-1.06,3.399-2.413,4.18l-20.559,11.87C396.245,366.976,395.842,367.095,395.471,367.095z M396.656,347.494
					c-1.1,0.635-2.029,2.244-2.029,3.513v14.117c0,0.542,0.162,0.935,0.458,1.105c0.296,0.17,0.716,0.115,1.186-0.156l20.559-11.87
					c1.1-0.634,2.029-2.243,2.029-3.513v-14.117c0-0.542-0.162-0.935-0.458-1.105c-0.296-0.171-0.717-0.115-1.186,0.156
					L396.656,347.494z"/>
			</g>
			<g>
				<path style="fill:#27DEBF;" d="M398.409,352.259c-0.132,0-0.262-0.069-0.334-0.192c-0.106-0.184-0.043-0.42,0.141-0.526
					l16.667-9.623c0.179-0.102,0.417-0.044,0.526,0.141c0.106,0.184,0.043,0.42-0.141,0.526l-16.667,9.623
					C398.541,352.242,398.475,352.259,398.409,352.259z"/>
			</g>
			<g>
				<path style="fill:#27DEBF;" d="M398.409,356.176c-0.132,0-0.262-0.069-0.334-0.192c-0.106-0.184-0.043-0.42,0.141-0.526
					l16.667-9.623c0.179-0.103,0.417-0.044,0.526,0.141c0.106,0.184,0.043,0.42-0.141,0.526l-16.667,9.623
					C398.541,356.159,398.475,356.176,398.409,356.176z"/>
			</g>
			<g>
				<path style="fill:#27DEBF;" d="M398.409,360.094c-0.132,0-0.262-0.069-0.334-0.192c-0.106-0.184-0.043-0.42,0.141-0.526
					l16.667-9.623c0.179-0.102,0.417-0.044,0.526,0.141c0.106,0.184,0.043,0.42-0.141,0.526l-16.667,9.623
					C398.541,360.077,398.475,360.094,398.409,360.094z"/>
			</g>
		</g>
		<g>
			<g>
				<path style="fill:#27DEBF;" d="M222.782,442.74c-0.277,0-0.538-0.066-0.77-0.2c-0.543-0.313-0.842-0.943-0.842-1.771v-14.117
					c0-1.564,1.06-3.4,2.413-4.18l20.559-11.87c0.717-0.413,1.41-0.469,1.954-0.155c0.544,0.314,0.844,0.943,0.844,1.771v14.117
					c0,1.562-1.06,3.398-2.413,4.18l-20.559,11.87C223.557,442.621,223.154,442.74,222.782,442.74z M245.324,411.016
					c-0.235,0-0.507,0.085-0.797,0.254l-20.559,11.87l0,0c-1.1,0.633-2.029,2.242-2.029,3.513v14.117
					c0,0.542,0.162,0.935,0.458,1.105c0.296,0.171,0.717,0.115,1.186-0.156l20.559-11.87c1.1-0.635,2.029-2.244,2.029-3.513v-14.117
					c0-0.542-0.162-0.935-0.458-1.105C245.599,411.048,245.469,411.016,245.324,411.016z M223.775,422.806h0.01H223.775z"/>
			</g>
			<g>
				<path style="fill:#27DEBF;" d="M225.721,427.903c-0.132,0-0.262-0.069-0.334-0.192c-0.106-0.184-0.043-0.42,0.141-0.526
					l16.667-9.623c0.179-0.103,0.417-0.044,0.526,0.141c0.106,0.184,0.043,0.42-0.141,0.526l-16.667,9.623
					C225.853,427.886,225.787,427.903,225.721,427.903z"/>
			</g>
			<g>
				<path style="fill:#27DEBF;" d="M225.721,431.821c-0.132,0-0.262-0.069-0.334-0.192c-0.106-0.184-0.043-0.42,0.141-0.526
					l16.667-9.623c0.179-0.103,0.417-0.044,0.526,0.141c0.106,0.184,0.043,0.42-0.141,0.526l-16.667,9.623
					C225.853,431.804,225.787,431.821,225.721,431.821z"/>
			</g>
			<g>
				<path style="fill:#27DEBF;" d="M225.721,435.738c-0.132,0-0.262-0.069-0.334-0.192c-0.106-0.184-0.043-0.42,0.141-0.526
					l16.667-9.623c0.179-0.103,0.417-0.044,0.526,0.141c0.106,0.184,0.043,0.42-0.141,0.526l-16.667,9.623
					C225.853,435.721,225.787,435.738,225.721,435.738z"/>
			</g>
		</g>
		<g>
			<g>
				<path style="fill:#27DEBF;" d="M322.06,201.313c-0.277,0-0.538-0.067-0.77-0.201c-0.543-0.314-0.843-0.943-0.843-1.771
					l-0.001-14.117c0-1.562,1.06-3.398,2.413-4.18l0,0l20.56-11.87c0.717-0.414,1.411-0.47,1.954-0.156
					c0.544,0.314,0.844,0.943,0.844,1.771v14.117c0,1.563-1.06,3.399-2.413,4.18l-20.559,11.87
					C322.834,201.193,322.431,201.313,322.06,201.313z M323.244,181.711c-1.1,0.635-2.029,2.244-2.029,3.514l0.001,14.117
					c0,0.542,0.162,0.934,0.458,1.105c0.296,0.169,0.718,0.115,1.186-0.156l20.559-11.87c1.1-0.635,2.029-2.244,2.029-3.514V170.79
					c0-0.541-0.163-0.934-0.459-1.104c-0.296-0.171-0.716-0.115-1.185,0.155L323.244,181.711z"/>
			</g>
			<g>
				<path style="fill:#27DEBF;" d="M324.998,186.477c-0.132,0-0.262-0.069-0.334-0.192c-0.106-0.184-0.043-0.419,0.141-0.525
					l16.667-9.623c0.18-0.106,0.418-0.044,0.526,0.141c0.106,0.184,0.043,0.419-0.141,0.525l-16.667,9.623
					C325.13,186.46,325.064,186.477,324.998,186.477z"/>
			</g>
			<g>
				<path style="fill:#27DEBF;" d="M324.998,190.394c-0.132,0-0.262-0.069-0.334-0.192c-0.106-0.184-0.043-0.419,0.141-0.525
					l16.667-9.623c0.18-0.106,0.418-0.044,0.526,0.141c0.106,0.184,0.043,0.419-0.141,0.525l-16.667,9.623
					C325.13,190.378,325.064,190.394,324.998,190.394z"/>
			</g>
			<g>
				<path style="fill:#27DEBF;" d="M324.998,194.311c-0.132,0-0.262-0.069-0.334-0.192c-0.106-0.184-0.043-0.419,0.141-0.525
					l16.667-9.623c0.18-0.106,0.418-0.044,0.526,0.141c0.106,0.184,0.043,0.419-0.141,0.525l-16.667,9.623
					C325.13,194.295,325.064,194.311,324.998,194.311z"/>
			</g>
		</g>
	</g>
	<g id="Point">
		<g>
			<g>
				<path style="fill:#E0E0E0;" d="M228.192,95.013c-0.683,0-1.318-0.162-1.883-0.488c-1.345-0.777-2.087-2.372-2.087-4.49
					c-0.001-4.142,2.918-9.198,6.506-11.27c1.833-1.059,3.584-1.214,4.933-0.438c1.345,0.777,2.087,2.372,2.087,4.491
					c0,4.143-2.919,9.199-6.506,11.27C230.175,94.702,229.138,95.013,228.192,95.013z M233.773,78.866
					c-0.764,0-1.627,0.264-2.532,0.787c-3.306,1.908-5.994,6.565-5.993,10.382c0,1.736,0.559,3.016,1.574,3.602
					c1.015,0.586,2.401,0.432,3.907-0.438c3.305-1.908,5.993-6.565,5.993-10.381c0-1.737-0.559-3.016-1.574-3.602
					C234.743,78.982,234.28,78.866,233.773,78.866z"/>
			</g>
			<path style="fill:#27DEBF;" d="M230.984,82.165c2.038-1.176,3.69-0.223,3.69,2.13c0,2.353-1.652,5.214-3.69,6.391
				c-2.038,1.177-3.69,0.223-3.69-2.13C227.295,86.203,228.947,83.342,230.984,82.165z"/>
		</g>
		<g>
			<g>
				<path style="fill:#27DEBF;" d="M215.145,74.382c-0.274,0-0.532-0.066-0.762-0.199c-0.537-0.31-0.832-0.928-0.832-1.741V54.217
					c0-1.518,1.03-3.301,2.344-4.06l29.157-16.833c0.705-0.407,1.388-0.459,1.923-0.149c0.537,0.31,0.832,0.928,0.832,1.741
					l-0.001,18.225c0,1.518-1.03,3.301-2.344,4.06l-9.934,5.763l-2.918,9.923c-0.119,0.406-0.47,0.686-0.893,0.712
					c-0.41,0.024-0.805-0.208-0.973-0.597l-2.521-5.82l-11.917,6.852C215.905,74.265,215.51,74.382,215.145,74.382z M245.464,34.037
					L216.307,50.87c-1.048,0.605-1.932,2.138-1.932,3.347v18.225c0,0.499,0.154,0.873,0.421,1.028c0.266,0.155,0.668,0.1,1.1-0.15
					l12.718-7.314l2.887,6.667c0.042,0.097,0.122,0.104,0.168,0.103c0.044-0.003,0.124-0.022,0.154-0.123l3.01-10.239l10.22-5.928
					c1.048-0.605,1.932-2.138,1.932-3.347l0.001-18.225c0-0.499-0.153-0.874-0.421-1.028
					C246.298,33.734,245.895,33.787,245.464,34.037L245.464,34.037z"/>
			</g>
			<g>
				<path style="fill:#27DEBF;" d="M220.649,55.997c-0.142,0-0.28-0.074-0.356-0.206c-0.114-0.197-0.047-0.448,0.15-0.562
					l20.06-11.582c0.195-0.112,0.448-0.046,0.562,0.151c0.114,0.197,0.047,0.448-0.15,0.562l-20.06,11.582
					C220.791,55.979,220.72,55.997,220.649,55.997z"/>
			</g>
			<g>
				<path style="fill:#27DEBF;" d="M220.649,59.881c-0.142,0-0.28-0.074-0.356-0.206c-0.114-0.197-0.047-0.448,0.15-0.562
					l20.06-11.581c0.195-0.112,0.448-0.047,0.562,0.151c0.114,0.197,0.047,0.448-0.15,0.562l-20.06,11.581
					C220.791,59.863,220.72,59.881,220.649,59.881z"/>
			</g>
			<g>
				<path style="fill:#27DEBF;" d="M220.649,63.764c-0.142,0-0.28-0.074-0.356-0.206c-0.114-0.197-0.047-0.448,0.15-0.562
					l20.06-11.581c0.195-0.112,0.448-0.047,0.562,0.151c0.114,0.197,0.047,0.448-0.15,0.562l-20.06,11.581
					C220.791,63.747,220.72,63.764,220.649,63.764z"/>
			</g>
		</g>
	</g>
</g>
<g id="Speech_Bubble">
	<g id="Speech_Bubble_6_">
		<g id="XMLID_556_">
			<path id="XMLID_563_" style="fill:#27DEBF;" d="M116.13,83.169l-2.643-5.706l2.127-6.139v-3.758l-6.509,3.758v3.758l2.798,5.582
				c0.047,0.082,0.115,0.135,0.19,0.169l-0.002,0.002L116.13,83.169z"/>
			<path id="XMLID_562_" style="opacity:0.2;" d="M116.13,83.169l-2.643-5.706l2.127-6.139v-3.758l-6.509,3.758v3.758l2.798,5.582
				c0.047,0.082,0.115,0.135,0.19,0.169l-0.002,0.002L116.13,83.169z"/>
			<path id="XMLID_560_" style="fill:#27DEBF;" d="M131.674,37.689c0-1.244-0.874-2.758-1.952-3.38l-1.589-0.917
				c-1.078-0.622-2.825-0.622-3.903,0L99.862,47.486c-1.078,0.622-1.952,2.136-1.952,3.38v26.812c0,1.245,0.874,2.758,1.952,3.38
				l1.589,0.917c1.078,0.622,2.825,0.622,3.903,0l7.837-4.528l2.793,5.573c0.178,0.309,0.638,0.265,0.755-0.072l2.952-9.256
				l10.032-5.812c1.078-0.622,1.951-2.135,1.951-3.38L131.674,37.689z"/>
			<path id="XMLID_559_" style="opacity:0.2;" d="M97.91,77.679c0,1.245,0.874,2.758,1.951,3.38l1.589,0.917
				c0.974,0.563,2.49,0.612,3.57,0.157c-0.919,0.347-1.618-0.171-1.618-1.284l0-26.813c0-0.622,0.219-1.312,0.571-1.923
				l-5.492-3.171c-0.353,0.612-0.571,1.301-0.571,1.923V77.679z"/>
			<path id="XMLID_558_" style="opacity:0.3;fill:#FFFFFF;" d="M131.61,37.135c-0.228-0.828-0.983-1.092-1.885-0.573l-24.373,14.098
				c-0.537,0.309-1.029,0.837-1.375,1.457l-5.49-3.168c0.355-0.619,0.838-1.147,1.375-1.457l24.364-14.098
				c1.083-0.619,2.831-0.619,3.906,0l1.593,0.92C130.645,34.841,131.419,36.024,131.61,37.135z"/>
		</g>
		<g id="XMLID_446_">
			<g id="XMLID_452_">
				<path id="XMLID_547_" style="fill:#FFFFFF;" d="M127.312,56.704c-0.002-0.002-0.007-0.004-0.011-0.006
					c-0.037-0.019-0.084-0.032-0.136-0.034l-1.865-0.105c-0.189-0.011-0.329-0.146-0.314-0.303c0.026-0.295,0.041-0.587,0.043-0.871
					c0.002-0.316-0.011-0.626-0.041-0.927c-0.013-0.148,0.075-0.394,0.204-0.551l2.083-2.521c0.129-0.157,0.185-0.389,0.127-0.518
					l-0.99-2.188c-0.013-0.03-0.034-0.054-0.06-0.069c-0.004-0.002-0.009-0.004-0.013-0.006c-0.082-0.041-0.204-0.006-0.318,0.099
					l-2.225,2.031c-0.157,0.144-0.37,0.176-0.486,0.082c-0.288-0.236-0.607-0.419-0.951-0.553c-0.153-0.06-0.258-0.228-0.224-0.389
					l0.686-3.113c0.021-0.095-0.017-0.174-0.095-0.22c-0.054-0.03-0.125-0.043-0.207-0.036l-2.175,0.217
					c-0.202,0.019-0.415,0.168-0.475,0.331l-1.179,3.163c-0.06,0.164-0.275,0.364-0.475,0.458c-0.445,0.211-0.895,0.471-1.347,0.781
					c-0.183,0.123-0.387,0.131-0.467,0.011l-1.112-1.7c-0.08-0.12-0.258-0.095-0.402,0.054l-2.388,2.524
					c-0.144,0.151-0.226,0.385-0.185,0.523l0.665,2.253c0.041,0.138-0.015,0.381-0.12,0.542c-0.409,0.617-0.774,1.256-1.099,1.906
					c-0.082,0.164-0.312,0.338-0.519,0.387l-2.044,0.493c-0.206,0.049-0.413,0.222-0.462,0.383l-1.028,3.464
					c-0.05,0.161,0.067,0.301,0.254,0.312l1.868,0.105c0.189,0.011,0.327,0.146,0.314,0.304c-0.056,0.624-0.058,1.228-0.005,1.798
					c0.015,0.151-0.073,0.396-0.202,0.551l-2.083,2.524c-0.129,0.155-0.185,0.387-0.127,0.519l0.99,2.186
					c0.013,0.032,0.034,0.054,0.06,0.069c0,0.002,0,0.002,0,0.002c0.004,0.002,0.006,0.002,0.006,0.002
					c0.026,0.013,0.052,0.019,0.08,0.019h0.002c0.073,0,0.159-0.039,0.243-0.114l2.222-2.033c0.157-0.142,0.37-0.176,0.486-0.082
					c0.291,0.237,0.609,0.42,0.951,0.553c0.155,0.06,0.26,0.23,0.224,0.389l-0.686,3.115c-0.019,0.093,0.017,0.168,0.09,0.213
					c0.002,0.002,0.004,0.002,0.007,0.004c0.052,0.03,0.123,0.045,0.204,0.037l2.175-0.215c0.202-0.021,0.415-0.17,0.476-0.331
					l1.181-3.162c0.06-0.164,0.275-0.364,0.476-0.461c0.228-0.107,0.46-0.23,0.691-0.364c0.217-0.127,0.437-0.267,0.656-0.415
					c0.181-0.125,0.387-0.133,0.465-0.013l1.114,1.702c0.015,0.022,0.032,0.039,0.054,0.05c0.09,0.056,0.23,0.017,0.346-0.105
					l2.39-2.524c0.142-0.149,0.224-0.385,0.183-0.523l-0.665-2.25c-0.041-0.14,0.017-0.383,0.123-0.542
					c0.409-0.617,0.774-1.258,1.097-1.908c0.082-0.164,0.312-0.336,0.521-0.385l2.042-0.493c0.209-0.05,0.415-0.222,0.463-0.385
					l1.031-3.462C127.454,56.864,127.409,56.76,127.312,56.704z M116.407,65.164c-0.041,0.011-0.08,0.021-0.12,0.03
					c-0.03,0.008-0.058,0.013-0.086,0.019c-0.065,0.013-0.129,0.024-0.194,0.032c-0.076,0.011-0.151,0.017-0.225,0.022
					c-0.047,0.003-0.093,0.004-0.139,0.005c-0.022,0-0.044,0-0.065,0c-0.893-0.01-1.636-0.463-2.049-1.378
					c-0.155-0.342-0.254-0.727-0.299-1.14c-0.026-0.204-0.037-0.415-0.034-0.633c0.013-1.973,1.026-4.417,2.698-6.183
					c0.54-0.57,1.097-1.016,1.648-1.336c0.183-0.108,0.368-0.202,0.549-0.28c0.542-0.239,1.065-0.348,1.542-0.327
					c0.006,0,0.011,0,0.017,0.002c0.026,0,0.052,0.002,0.077,0.004c0.028,0.002,0.054,0.004,0.08,0.009
					c0.028,0.002,0.056,0.004,0.084,0.011c0.742,0.107,1.349,0.555,1.71,1.351c0.923,2.042-0.136,5.604-2.364,7.956
					C118.302,64.314,117.31,64.932,116.407,65.164z"/>
			</g>
		</g>
	</g>
</g>
</svg>
